<?xml version="1.0" encoding="utf-8"?>
<!-- Generator: Adobe Illustrator 15.0.0, SVG Export Plug-In . SVG Version: 6.00 Build 0)  -->
<!DOCTYPE svg PUBLIC "-//W3C//DTD SVG 1.1//EN" "http://www.w3.org/Graphics/SVG/1.1/DTD/svg11.dtd">
<svg version="1.1" id="Calque_1" xmlns="http://www.w3.org/2000/svg" xmlns:xlink="http://www.w3.org/1999/xlink" x="0px" y="0px"
	 width="595.28px" height="841.89px" viewBox="0 0 595.28 841.89" enable-background="new 0 0 595.28 841.89" xml:space="preserve">
<path fill="#BB157B" d="M188.928,394.288c12.374,0,22.404,10.03,22.404,22.403s-10.03,22.404-22.403,22.403
	c-12.374,0.001-22.404-10.03-22.404-22.404C166.524,404.318,176.555,394.288,188.928,394.288"/>
<g>
	<defs>
		<path id="SVGID_1_" d="M166.526,416.69c0,12.374,10.029,22.405,22.403,22.404c12.373,0.001,22.403-10.03,22.403-22.402
			c0-12.373-10.03-22.404-22.404-22.404C176.555,394.288,166.525,404.319,166.526,416.69"/>
	</defs>
	<clipPath id="SVGID_2_">
		<use xlink:href="#SVGID_1_"  overflow="visible"/>
	</clipPath>
	<g opacity="0.4" clip-path="url(#SVGID_2_)">
		<g>
			<defs>
				<rect id="SVGID_3_" x="175.379" y="411.092" width="51.695" height="35.796"/>
			</defs>
			<clipPath id="SVGID_4_">
				<use xlink:href="#SVGID_3_"  overflow="visible"/>
			</clipPath>
			<g clip-path="url(#SVGID_4_)">
				<defs>
					<path id="SVGID_5_" d="M226.829,445.247c-0.015-0.019-0.025-0.037-0.042-0.054c-0.011-0.012-0.027-0.018-0.039-0.027
						c-0.015-0.019-0.026-0.038-0.042-0.055c-0.012-0.012-0.028-0.018-0.041-0.027c-0.014-0.018-0.025-0.037-0.041-0.054
						c-0.012-0.012-0.027-0.018-0.039-0.027c-0.015-0.019-0.026-0.038-0.043-0.056c-0.012-0.011-0.028-0.018-0.041-0.027
						c-0.014-0.018-0.025-0.037-0.041-0.054c-0.011-0.011-0.026-0.017-0.039-0.026c-0.014-0.019-0.026-0.038-0.043-0.056
						c-0.011-0.012-0.027-0.018-0.04-0.028c-0.014-0.018-0.025-0.037-0.042-0.053c-0.011-0.012-0.026-0.018-0.039-0.027
						c-0.014-0.019-0.026-0.038-0.042-0.055c-0.011-0.012-0.028-0.018-0.04-0.027c-0.014-0.018-0.026-0.038-0.042-0.055
						c-0.011-0.012-0.027-0.017-0.039-0.027c-0.015-0.018-0.026-0.037-0.042-0.054c-0.012-0.012-0.028-0.018-0.04-0.027
						c-0.014-0.018-0.026-0.038-0.042-0.055c-0.012-0.012-0.028-0.018-0.04-0.028c-0.014-0.018-0.026-0.037-0.042-0.053
						c-0.012-0.012-0.027-0.018-0.04-0.028c-0.014-0.018-0.025-0.038-0.042-0.054c-0.011-0.012-0.027-0.018-0.039-0.027
						c-0.015-0.018-0.026-0.038-0.042-0.055c-0.012-0.012-0.027-0.017-0.04-0.027c-0.015-0.018-0.025-0.037-0.042-0.054
						c-0.011-0.012-0.027-0.018-0.04-0.027c-0.014-0.019-0.025-0.038-0.041-0.055c-0.012-0.011-0.027-0.017-0.04-0.026
						c-0.014-0.019-0.025-0.039-0.043-0.056c-0.011-0.012-0.026-0.018-0.039-0.027c-0.014-0.018-0.025-0.038-0.042-0.055
						c-0.011-0.012-0.027-0.018-0.04-0.027c-0.014-0.019-0.025-0.038-0.042-0.054c-0.011-0.012-0.027-0.018-0.04-0.028
						c-0.014-0.018-0.025-0.037-0.042-0.054c-0.011-0.012-0.026-0.018-0.039-0.027c-0.015-0.019-0.026-0.038-0.042-0.055
						c-0.011-0.012-0.028-0.017-0.04-0.027c-0.014-0.018-0.026-0.037-0.042-0.054c-0.011-0.012-0.028-0.018-0.04-0.027
						c-0.014-0.019-0.025-0.038-0.042-0.054c-0.011-0.013-0.027-0.018-0.039-0.028c-0.014-0.018-0.026-0.038-0.042-0.054
						c-0.012-0.012-0.028-0.019-0.04-0.028c-0.015-0.018-0.026-0.037-0.042-0.054c-0.012-0.011-0.027-0.018-0.039-0.027
						c-0.015-0.019-0.026-0.038-0.043-0.055c-0.011-0.012-0.027-0.018-0.039-0.027c-0.015-0.018-0.026-0.038-0.042-0.055
						c-0.012-0.011-0.028-0.017-0.04-0.027c-0.015-0.018-0.025-0.038-0.042-0.055c-0.012-0.011-0.028-0.018-0.04-0.027
						c-0.015-0.018-0.026-0.037-0.042-0.054c-0.011-0.012-0.027-0.018-0.04-0.027c-0.014-0.018-0.025-0.038-0.042-0.055
						c-0.011-0.012-0.027-0.017-0.04-0.027c-0.014-0.018-0.025-0.038-0.042-0.054c-0.011-0.012-0.027-0.018-0.039-0.027
						c-0.015-0.019-0.025-0.038-0.042-0.055c-0.011-0.012-0.027-0.018-0.04-0.027c-0.014-0.018-0.025-0.038-0.042-0.055
						c-0.011-0.012-0.027-0.018-0.04-0.027c-0.014-0.018-0.025-0.037-0.042-0.054c-0.011-0.012-0.027-0.019-0.039-0.027
						c-0.01-0.013-0.019-0.027-0.031-0.04v-4.214l-0.082-0.009v-0.072l-0.082-0.01v-0.072l-0.081-0.009v-0.073l-0.082-0.009v-0.073
						l-0.081-0.009v-0.073l-0.082-0.008v-0.072l-0.082-0.01v-0.072l-0.081-0.009v-0.072l-0.082-0.011v-0.072l-0.082-0.009v-0.073
						l-0.081-0.009v-0.072l-0.082-0.009v-0.073l-0.082-0.009v-0.072l-0.082-0.01v-0.072l-0.082-0.009v-0.073l-0.081-0.009v-0.073
						h-0.002c0.238-0.025,0.477-0.042,0.719-0.042c0.936,0,1.875,0.186,2.882,0.569c0.058,0.018,0.118,0.026,0.177,0.026
						c0.157,0,0.304-0.062,0.414-0.171c0.228-0.228,0.229-0.599,0.001-0.827c-0.013-0.014-0.035-0.021-0.05-0.034
						c-0.012-0.015-0.018-0.033-0.032-0.048c-0.013-0.014-0.035-0.022-0.05-0.034c-0.012-0.016-0.018-0.033-0.032-0.048
						c-0.013-0.013-0.034-0.021-0.05-0.033c-0.012-0.015-0.017-0.034-0.031-0.048c-0.013-0.013-0.034-0.021-0.049-0.033
						c-0.012-0.016-0.018-0.035-0.032-0.049c-0.014-0.014-0.036-0.022-0.052-0.034c-0.012-0.015-0.017-0.033-0.03-0.048
						c-0.014-0.013-0.035-0.021-0.05-0.033c-0.012-0.015-0.018-0.034-0.032-0.049c-0.013-0.013-0.035-0.021-0.05-0.033
						c-0.012-0.016-0.017-0.034-0.032-0.048c-0.013-0.014-0.035-0.021-0.05-0.034c-0.012-0.015-0.017-0.034-0.032-0.048
						c-0.013-0.014-0.035-0.021-0.05-0.034c-0.013-0.015-0.017-0.033-0.032-0.047c-0.013-0.014-0.035-0.021-0.049-0.034
						c-0.013-0.015-0.018-0.034-0.032-0.048c-0.013-0.014-0.035-0.021-0.05-0.033c-0.012-0.016-0.018-0.034-0.032-0.049
						c-0.013-0.014-0.035-0.021-0.049-0.033c-0.013-0.016-0.019-0.034-0.032-0.048c-0.014-0.014-0.036-0.022-0.05-0.034
						c-0.013-0.015-0.019-0.034-0.032-0.048c-0.014-0.014-0.035-0.022-0.05-0.033c-0.013-0.016-0.018-0.034-0.032-0.049
						c-0.013-0.013-0.035-0.021-0.051-0.034c-0.011-0.014-0.017-0.033-0.031-0.047c-0.013-0.013-0.034-0.021-0.049-0.033
						c-0.012-0.016-0.018-0.035-0.032-0.049c-0.014-0.014-0.035-0.021-0.05-0.034c-0.012-0.015-0.018-0.034-0.032-0.048
						c-0.013-0.014-0.035-0.021-0.05-0.033c-0.012-0.016-0.017-0.034-0.031-0.049c-0.014-0.014-0.036-0.021-0.051-0.034
						c-0.012-0.015-0.018-0.033-0.031-0.047c-0.014-0.014-0.036-0.022-0.051-0.034c-0.012-0.015-0.017-0.034-0.031-0.048
						s-0.035-0.021-0.05-0.033c-0.012-0.016-0.018-0.034-0.032-0.048c-0.013-0.014-0.035-0.021-0.049-0.034
						c-0.013-0.015-0.018-0.034-0.033-0.048c-0.013-0.014-0.034-0.021-0.049-0.033c-0.013-0.016-0.018-0.034-0.032-0.049
						c-0.013-0.014-0.035-0.021-0.05-0.033c-0.013-0.016-0.017-0.034-0.032-0.048c-0.013-0.014-0.035-0.022-0.05-0.034
						c-0.013-0.016-0.018-0.034-0.032-0.048c-0.013-0.013-0.034-0.021-0.049-0.033c-0.012-0.016-0.018-0.034-0.033-0.049
						c-0.013-0.014-0.035-0.022-0.05-0.034c-0.012-0.015-0.018-0.033-0.031-0.048c-0.013-0.014-0.035-0.021-0.051-0.033
						c-0.012-0.016-0.017-0.034-0.031-0.048c-0.013-0.014-0.034-0.021-0.049-0.033c-0.013-0.016-0.018-0.034-0.032-0.049
						c-0.014-0.014-0.036-0.021-0.051-0.034c-0.012-0.015-0.017-0.033-0.031-0.048c-0.014-0.013-0.036-0.021-0.05-0.033
						c-0.012-0.016-0.018-0.034-0.032-0.048c-0.013-0.014-0.035-0.021-0.05-0.034c-0.012-0.015-0.017-0.034-0.032-0.048
						c-0.013-0.014-0.035-0.021-0.05-0.034c-0.012-0.016-0.018-0.033-0.031-0.047c-0.014-0.014-0.036-0.021-0.05-0.034
						c-0.012-0.015-0.018-0.034-0.032-0.048c-0.013-0.014-0.035-0.021-0.05-0.033c-0.012-0.016-0.017-0.034-0.032-0.049
						c-0.013-0.014-0.034-0.021-0.049-0.033c-0.013-0.016-0.018-0.034-0.033-0.049c-0.013-0.013-0.034-0.021-0.049-0.033
						c-0.013-0.016-0.018-0.034-0.032-0.049c-0.014-0.013-0.036-0.021-0.051-0.034c-0.012-0.015-0.017-0.032-0.031-0.047
						c-0.013-0.013-0.035-0.021-0.05-0.034c-0.012-0.015-0.018-0.033-0.032-0.048c-0.013-0.014-0.035-0.021-0.05-0.033
						c-0.012-0.016-0.018-0.034-0.032-0.048c-0.012-0.014-0.034-0.021-0.049-0.034c-0.013-0.015-0.018-0.034-0.032-0.048
						c-0.013-0.014-0.035-0.021-0.05-0.033c-0.012-0.016-0.018-0.034-0.032-0.049c-0.013-0.013-0.035-0.021-0.05-0.033
						c-0.012-0.016-0.017-0.034-0.031-0.048c-0.014-0.014-0.036-0.022-0.051-0.034c-0.012-0.015-0.017-0.034-0.031-0.048
						c-0.014-0.015-0.036-0.021-0.051-0.034c-0.012-0.015-0.017-0.033-0.031-0.047c-0.013-0.014-0.034-0.021-0.049-0.033
						c-0.012-0.016-0.018-0.035-0.032-0.05c-0.014-0.013-0.036-0.021-0.05-0.033c-0.013-0.016-0.018-0.034-0.033-0.048
						c-0.013-0.014-0.035-0.022-0.05-0.034c-0.012-0.015-0.017-0.033-0.031-0.047c-0.013-0.013-0.035-0.021-0.049-0.034
						c-0.013-0.015-0.018-0.034-0.033-0.049c-0.013-0.013-0.035-0.021-0.05-0.033c-0.012-0.016-0.017-0.034-0.032-0.048
						c-0.013-0.014-0.035-0.022-0.05-0.034c-0.012-0.015-0.018-0.033-0.031-0.048c-0.013-0.014-0.035-0.021-0.05-0.033
						c-0.013-0.016-0.018-0.034-0.032-0.048c-0.013-0.014-0.035-0.021-0.05-0.034c-0.012-0.015-0.018-0.034-0.032-0.048
						c-0.013-0.014-0.034-0.021-0.05-0.033c-0.012-0.016-0.017-0.034-0.031-0.049c-0.013-0.013-0.035-0.021-0.05-0.033
						c-0.012-0.016-0.018-0.034-0.032-0.048c-0.014-0.014-0.035-0.022-0.05-0.034c-0.013-0.015-0.018-0.034-0.032-0.048
						c-0.013-0.013-0.035-0.021-0.049-0.034c-0.013-0.015-0.018-0.033-0.032-0.048c-0.014-0.014-0.036-0.022-0.052-0.034
						c-0.012-0.015-0.017-0.033-0.03-0.047c-0.014-0.014-0.035-0.021-0.05-0.033c-0.012-0.016-0.018-0.034-0.032-0.049
						c-0.013-0.014-0.035-0.021-0.05-0.034c-0.012-0.015-0.017-0.034-0.032-0.048c-0.013-0.014-0.035-0.021-0.05-0.034
						c-0.012-0.015-0.017-0.033-0.032-0.048c-0.013-0.013-0.035-0.021-0.049-0.033c-0.013-0.016-0.018-0.034-0.032-0.048
						c-0.014-0.014-0.035-0.022-0.05-0.034c-0.013-0.015-0.018-0.033-0.032-0.048c-0.013-0.014-0.035-0.021-0.049-0.033
						c-0.013-0.016-0.019-0.034-0.033-0.048c-0.013-0.014-0.034-0.021-0.049-0.034c-0.013-0.015-0.018-0.034-0.032-0.048
						c-0.013-0.013-0.034-0.021-0.049-0.033c-0.013-0.016-0.018-0.034-0.033-0.049c-0.013-0.014-0.035-0.021-0.05-0.034
						c-0.012-0.015-0.018-0.034-0.032-0.048c-0.013-0.014-0.035-0.021-0.051-0.034c-0.012-0.015-0.017-0.033-0.03-0.047
						c-0.014-0.013-0.035-0.021-0.049-0.033c-0.013-0.016-0.018-0.034-0.033-0.049c-0.014-0.014-0.036-0.022-0.051-0.034
						c-0.012-0.016-0.017-0.033-0.031-0.048c-0.013-0.013-0.035-0.021-0.05-0.033c-0.012-0.016-0.017-0.034-0.031-0.048
						s-0.035-0.021-0.05-0.033c-0.012-0.016-0.018-0.035-0.032-0.049s-0.035-0.021-0.05-0.034c-0.013-0.015-0.018-0.033-0.032-0.048
						c-0.013-0.013-0.035-0.021-0.05-0.033c-0.012-0.016-0.017-0.034-0.032-0.048c-0.013-0.014-0.035-0.022-0.05-0.034
						c-0.013-0.016-0.017-0.033-0.032-0.048c-0.013-0.014-0.035-0.021-0.049-0.033c-0.013-0.016-0.018-0.034-0.032-0.048
						c-0.013-0.014-0.035-0.021-0.049-0.034c-0.013-0.015-0.019-0.034-0.033-0.048c-0.013-0.014-0.036-0.022-0.051-0.035
						c-0.012-0.015-0.017-0.033-0.031-0.047c-0.013-0.013-0.034-0.021-0.05-0.033c-0.012-0.016-0.017-0.034-0.031-0.048
						c-0.013-0.013-0.034-0.021-0.049-0.034c-0.013-0.015-0.018-0.034-0.033-0.049c-0.013-0.013-0.035-0.021-0.051-0.033
						c-0.012-0.016-0.017-0.034-0.031-0.048c-0.013-0.014-0.035-0.022-0.05-0.034c-0.012-0.015-0.018-0.033-0.031-0.048
						c-0.014-0.013-0.036-0.021-0.05-0.034c-0.013-0.015-0.018-0.033-0.032-0.047s-0.035-0.021-0.05-0.034
						c-0.012-0.015-0.018-0.034-0.032-0.048c-0.013-0.014-0.035-0.021-0.049-0.033c-0.013-0.016-0.018-0.034-0.033-0.049
						c-0.013-0.013-0.034-0.021-0.048-0.032c-0.013-0.017-0.018-0.035-0.033-0.05c-0.014-0.014-0.036-0.021-0.051-0.034
						c-0.012-0.015-0.017-0.032-0.031-0.048c-0.013-0.012-0.035-0.021-0.049-0.032c-0.013-0.016-0.018-0.034-0.033-0.048
						c-0.013-0.014-0.035-0.022-0.05-0.034c-0.012-0.016-0.017-0.034-0.032-0.049c-0.013-0.013-0.035-0.021-0.049-0.033
						c-0.013-0.016-0.019-0.034-0.032-0.048c-0.013-0.013-0.035-0.021-0.05-0.034c-0.012-0.015-0.018-0.034-0.032-0.048
						c-0.013-0.014-0.035-0.021-0.05-0.033c-0.012-0.016-0.017-0.034-0.032-0.049c-0.013-0.013-0.035-0.021-0.05-0.033
						c-0.012-0.016-0.017-0.034-0.031-0.048c-0.013-0.014-0.035-0.022-0.05-0.034c-0.013-0.015-0.018-0.033-0.032-0.048
						c-0.013-0.013-0.035-0.021-0.05-0.033c-0.012-0.016-0.018-0.034-0.031-0.048c-0.014-0.013-0.036-0.021-0.05-0.034
						c-0.013-0.015-0.018-0.034-0.032-0.048s-0.035-0.021-0.05-0.033c-0.012-0.016-0.018-0.034-0.032-0.049
						c-0.013-0.013-0.035-0.021-0.05-0.034c-0.013-0.015-0.018-0.033-0.032-0.047c-0.013-0.014-0.035-0.022-0.05-0.034
						c-0.013-0.015-0.017-0.033-0.032-0.048c-0.012-0.013-0.034-0.021-0.048-0.033c-0.013-0.016-0.018-0.034-0.033-0.049
						c-0.013-0.014-0.036-0.022-0.05-0.034c-0.013-0.016-0.018-0.033-0.032-0.048c-0.014-0.013-0.036-0.021-0.051-0.034
						c-0.012-0.015-0.017-0.032-0.031-0.047c-0.013-0.013-0.034-0.021-0.049-0.033c-0.013-0.016-0.018-0.034-0.033-0.049
						c-0.012-0.014-0.034-0.021-0.049-0.033c-0.013-0.016-0.018-0.035-0.032-0.049c-0.013-0.013-0.035-0.021-0.05-0.033
						c-0.013-0.016-0.018-0.034-0.032-0.048c-0.013-0.014-0.035-0.022-0.051-0.034c-0.012-0.016-0.017-0.033-0.031-0.048
						c-0.013-0.013-0.034-0.021-0.049-0.033c-0.013-0.016-0.018-0.034-0.032-0.048c-0.013-0.014-0.035-0.021-0.05-0.034
						c-0.012-0.015-0.017-0.034-0.032-0.048c-0.013-0.014-0.035-0.021-0.05-0.035c-0.012-0.015-0.018-0.033-0.032-0.047
						c-0.013-0.013-0.035-0.021-0.049-0.033c-0.012-0.016-0.018-0.034-0.032-0.049c-0.014-0.014-0.036-0.021-0.05-0.033
						c-0.012-0.016-0.018-0.034-0.032-0.049c-0.014-0.013-0.035-0.021-0.051-0.033c-0.012-0.015-0.017-0.034-0.031-0.048
						c-0.013-0.014-0.035-0.021-0.05-0.033c-0.012-0.016-0.017-0.034-0.032-0.05c-0.013-0.012-0.035-0.021-0.049-0.032
						c-0.013-0.016-0.018-0.034-0.032-0.048c-0.013-0.014-0.035-0.021-0.05-0.034c-0.013-0.015-0.018-0.034-0.032-0.048
						c-0.013-0.014-0.035-0.021-0.049-0.033c-0.013-0.016-0.018-0.034-0.033-0.049c-0.013-0.013-0.035-0.021-0.05-0.033
						c-0.012-0.016-0.017-0.034-0.031-0.048c-0.014-0.014-0.035-0.022-0.051-0.034c-0.012-0.016-0.017-0.033-0.031-0.048
						c-0.013-0.013-0.035-0.021-0.05-0.033c-0.012-0.016-0.017-0.034-0.031-0.048c-0.014-0.014-0.036-0.022-0.051-0.034
						c-0.012-0.015-0.017-0.034-0.031-0.048c-0.014-0.014-0.036-0.021-0.051-0.034c-0.012-0.016-0.017-0.034-0.031-0.048
						c-0.014-0.013-0.036-0.021-0.051-0.034c-0.012-0.015-0.017-0.033-0.031-0.047c-0.013-0.014-0.035-0.022-0.05-0.034
						c-0.012-0.016-0.017-0.034-0.032-0.049c-0.013-0.013-0.035-0.021-0.05-0.033c-0.012-0.015-0.017-0.034-0.032-0.048
						c-0.013-0.014-0.035-0.021-0.049-0.033c-0.013-0.016-0.018-0.034-0.032-0.049c-0.014-0.013-0.035-0.021-0.05-0.033
						c-0.012-0.016-0.018-0.034-0.032-0.048c-0.013-0.014-0.034-0.021-0.049-0.034c-0.013-0.015-0.018-0.034-0.033-0.048
						c-0.012-0.014-0.034-0.021-0.049-0.033c-0.013-0.016-0.018-0.034-0.032-0.049c-0.013-0.013-0.035-0.021-0.05-0.033
						c-0.013-0.016-0.018-0.034-0.032-0.048c-0.013-0.013-0.034-0.021-0.049-0.033c-0.013-0.016-0.018-0.034-0.033-0.049
						c-0.013-0.013-0.034-0.021-0.049-0.033c-0.012-0.016-0.018-0.034-0.032-0.049c-0.013-0.014-0.036-0.022-0.051-0.034
						c-0.012-0.015-0.017-0.033-0.031-0.048c-0.014-0.013-0.035-0.021-0.05-0.033c-0.012-0.016-0.018-0.034-0.032-0.048
						c-0.013-0.013-0.035-0.021-0.049-0.034c-0.012-0.015-0.018-0.033-0.032-0.048c-0.014-0.014-0.036-0.021-0.051-0.035
						c-0.012-0.014-0.017-0.032-0.031-0.047c-0.014-0.013-0.035-0.021-0.05-0.033c-0.012-0.015-0.018-0.034-0.032-0.048
						c-0.013-0.014-0.035-0.021-0.05-0.033c-0.012-0.016-0.017-0.034-0.032-0.049c-0.013-0.013-0.034-0.021-0.049-0.033
						c-0.013-0.016-0.018-0.034-0.032-0.049c-0.013-0.013-0.035-0.021-0.05-0.033c-0.013-0.015-0.017-0.034-0.032-0.048
						c-0.013-0.014-0.035-0.021-0.05-0.034c-0.013-0.015-0.018-0.033-0.032-0.048c-0.013-0.013-0.035-0.021-0.049-0.033
						c-0.013-0.016-0.018-0.034-0.033-0.049c-0.013-0.014-0.035-0.021-0.05-0.034c-0.012-0.015-0.018-0.032-0.031-0.047
						c-0.013-0.013-0.036-0.021-0.051-0.034c-0.012-0.015-0.018-0.033-0.031-0.047c-0.013-0.014-0.034-0.021-0.049-0.034
						c-0.013-0.015-0.019-0.034-0.033-0.049c-0.013-0.013-0.035-0.021-0.05-0.033c-0.012-0.016-0.017-0.034-0.031-0.048
						c-0.014-0.014-0.035-0.021-0.05-0.034c-0.013-0.015-0.018-0.034-0.032-0.048c-0.014-0.014-0.035-0.021-0.05-0.033
						c-0.012-0.016-0.018-0.034-0.032-0.049c-0.013-0.013-0.035-0.021-0.05-0.033c-0.012-0.015-0.017-0.034-0.031-0.048
						s-0.036-0.022-0.051-0.034c-0.012-0.016-0.017-0.033-0.031-0.048c-0.013-0.013-0.035-0.021-0.049-0.032
						c-0.013-0.016-0.018-0.035-0.033-0.05c-0.013-0.014-0.035-0.021-0.051-0.034c-0.012-0.016-0.017-0.033-0.031-0.048
						c-0.013-0.013-0.035-0.021-0.05-0.033c-0.012-0.015-0.017-0.034-0.032-0.048c-0.012-0.013-0.034-0.021-0.048-0.032
						c-0.013-0.017-0.018-0.035-0.033-0.05c-0.013-0.014-0.035-0.021-0.05-0.034c-0.013-0.015-0.018-0.033-0.032-0.047
						c-0.013-0.014-0.035-0.021-0.049-0.034c-0.013-0.015-0.018-0.034-0.033-0.048c-0.013-0.014-0.035-0.021-0.05-0.033
						c-0.012-0.016-0.017-0.034-0.031-0.049c-0.013-0.013-0.035-0.021-0.05-0.033c-0.012-0.016-0.018-0.034-0.032-0.048
						c-0.013-0.014-0.034-0.021-0.05-0.034c-0.012-0.015-0.017-0.034-0.031-0.048c-0.014-0.014-0.036-0.021-0.051-0.034
						c-0.012-0.015-0.018-0.033-0.031-0.048c-0.014-0.013-0.035-0.021-0.05-0.034c-0.012-0.014-0.018-0.033-0.032-0.047
						c-0.013-0.014-0.035-0.021-0.05-0.033c-0.012-0.016-0.017-0.034-0.031-0.049c-0.014-0.013-0.036-0.021-0.05-0.033
						c-0.013-0.016-0.018-0.035-0.033-0.049c-0.013-0.013-0.035-0.021-0.049-0.033c-0.013-0.016-0.018-0.034-0.033-0.049
						c-0.013-0.013-0.035-0.021-0.049-0.033c-0.013-0.015-0.018-0.033-0.032-0.049c-0.013-0.012-0.034-0.02-0.049-0.031
						c-0.012-0.017-0.018-0.035-0.033-0.05c-0.013-0.013-0.035-0.021-0.05-0.033c-0.012-0.016-0.017-0.034-0.032-0.048
						c-0.012-0.014-0.034-0.021-0.049-0.034c-0.013-0.015-0.018-0.034-0.032-0.048c-0.013-0.014-0.035-0.021-0.05-0.033
						c-0.012-0.016-0.018-0.034-0.032-0.049c-0.013-0.013-0.035-0.021-0.05-0.033c-0.012-0.016-0.017-0.034-0.031-0.048
						c-0.013-0.013-0.035-0.021-0.05-0.033c-0.012-0.016-0.017-0.035-0.032-0.049c-0.013-0.014-0.035-0.021-0.05-0.034
						c-0.012-0.015-0.018-0.034-0.032-0.048c-0.014-0.014-0.035-0.022-0.051-0.034c-0.011-0.015-0.017-0.033-0.031-0.047
						c-0.013-0.013-0.034-0.021-0.048-0.033c-0.013-0.015-0.018-0.034-0.033-0.049c-0.014-0.014-0.036-0.022-0.051-0.034
						c-0.012-0.015-0.017-0.034-0.031-0.048c-0.013-0.014-0.035-0.021-0.05-0.033c-0.012-0.016-0.018-0.034-0.032-0.049
						c-0.013-0.013-0.035-0.021-0.05-0.033c-0.012-0.015-0.017-0.034-0.032-0.048c-0.013-0.013-0.034-0.021-0.049-0.033
						c-0.013-0.016-0.017-0.034-0.032-0.049c-0.013-0.014-0.035-0.021-0.05-0.033c-0.013-0.016-0.018-0.034-0.032-0.048
						c-0.013-0.014-0.035-0.022-0.05-0.034c-0.013-0.016-0.018-0.034-0.032-0.048c-0.013-0.013-0.035-0.021-0.049-0.033
						c-0.013-0.016-0.018-0.034-0.032-0.049c-0.013-0.013-0.035-0.021-0.05-0.033c-0.012-0.016-0.018-0.035-0.032-0.048
						c-0.013-0.014-0.036-0.022-0.051-0.035c-0.012-0.015-0.018-0.033-0.031-0.047c-0.013-0.013-0.034-0.021-0.049-0.033
						c-0.012-0.016-0.018-0.034-0.032-0.049c-0.014-0.013-0.035-0.021-0.05-0.033c-0.013-0.016-0.018-0.034-0.032-0.049
						c-0.014-0.013-0.036-0.021-0.051-0.034c-0.012-0.015-0.017-0.032-0.031-0.047c-0.013-0.013-0.035-0.021-0.05-0.035
						c-0.012-0.014-0.017-0.033-0.032-0.047c-0.013-0.014-0.035-0.021-0.05-0.033c-0.012-0.016-0.017-0.034-0.031-0.049
						c-0.014-0.013-0.035-0.021-0.05-0.033c-0.012-0.015-0.018-0.034-0.032-0.048s-0.035-0.022-0.05-0.033
						c-0.012-0.016-0.018-0.034-0.032-0.049c-0.013-0.014-0.035-0.021-0.05-0.033c-0.012-0.016-0.017-0.034-0.032-0.048
						c-0.012-0.013-0.034-0.021-0.049-0.034c-0.013-0.015-0.018-0.034-0.032-0.049c-0.013-0.013-0.035-0.021-0.05-0.033
						c-0.013-0.016-0.018-0.034-0.032-0.048c-0.013-0.014-0.035-0.021-0.049-0.034c-0.013-0.015-0.019-0.033-0.032-0.047
						c-0.014-0.014-0.036-0.022-0.051-0.034c-0.012-0.016-0.017-0.034-0.032-0.048c-0.013-0.014-0.034-0.021-0.05-0.034
						c-0.012-0.016-0.017-0.034-0.031-0.048c-0.013-0.013-0.034-0.021-0.049-0.033c-0.013-0.016-0.018-0.034-0.033-0.049
						c-0.013-0.013-0.034-0.021-0.049-0.033c-0.013-0.016-0.018-0.034-0.032-0.048c-0.014-0.014-0.036-0.022-0.051-0.034
						c-0.012-0.015-0.017-0.034-0.031-0.048c-0.014-0.013-0.036-0.021-0.051-0.034c-0.012-0.016-0.017-0.033-0.031-0.048
						c-0.013-0.013-0.035-0.021-0.05-0.033c-0.012-0.015-0.017-0.034-0.031-0.048s-0.036-0.022-0.051-0.034
						c-0.012-0.016-0.017-0.033-0.031-0.048c-0.013-0.014-0.035-0.021-0.05-0.033c-0.013-0.016-0.017-0.034-0.032-0.048
						c-0.013-0.014-0.036-0.022-0.05-0.034c-0.013-0.016-0.018-0.034-0.032-0.048c-0.013-0.014-0.034-0.022-0.049-0.033
						c-0.013-0.016-0.018-0.034-0.033-0.049c-0.013-0.014-0.035-0.022-0.05-0.034c-0.012-0.015-0.017-0.033-0.031-0.047
						c-0.013-0.014-0.036-0.022-0.05-0.034c-0.013-0.016-0.018-0.034-0.032-0.048c-0.013-0.014-0.034-0.021-0.049-0.033
						c-0.013-0.016-0.019-0.034-0.033-0.049c-0.013-0.014-0.035-0.021-0.05-0.033c-0.012-0.016-0.017-0.034-0.031-0.049
						c-0.014-0.013-0.035-0.021-0.05-0.033c-0.012-0.016-0.018-0.034-0.032-0.048c-0.013-0.014-0.035-0.021-0.05-0.034
						c-0.012-0.015-0.017-0.034-0.032-0.048c-0.013-0.014-0.035-0.021-0.05-0.034c-0.012-0.016-0.018-0.033-0.031-0.048
						c-0.014-0.013-0.035-0.021-0.05-0.032c-0.012-0.016-0.018-0.035-0.032-0.05c-0.014-0.013-0.035-0.021-0.05-0.033
						c-0.012-0.016-0.018-0.033-0.031-0.048c-0.014-0.014-0.036-0.021-0.051-0.033c-0.012-0.016-0.017-0.035-0.032-0.049
						c-0.013-0.013-0.035-0.021-0.049-0.033c-0.013-0.016-0.018-0.034-0.033-0.049c-0.013-0.013-0.034-0.021-0.049-0.033
						c-0.013-0.016-0.017-0.034-0.032-0.048c-0.013-0.014-0.035-0.021-0.049-0.034c-0.013-0.015-0.018-0.033-0.033-0.048
						c-0.013-0.014-0.035-0.021-0.05-0.034c-0.012-0.015-0.018-0.033-0.032-0.047c-0.013-0.014-0.035-0.022-0.05-0.034
						c-0.012-0.016-0.018-0.034-0.032-0.048c-0.012-0.013-0.034-0.021-0.049-0.033c-0.012-0.016-0.018-0.034-0.032-0.049
						c-0.013-0.013-0.035-0.021-0.05-0.033c-0.012-0.017-0.018-0.034-0.031-0.048c-0.013-0.014-0.035-0.021-0.05-0.034
						c-0.013-0.015-0.018-0.034-0.032-0.048c-0.013-0.014-0.035-0.021-0.05-0.033c-0.012-0.016-0.018-0.034-0.032-0.049
						c-0.014-0.014-0.036-0.022-0.051-0.034c-0.012-0.015-0.017-0.033-0.031-0.047c-0.013-0.014-0.035-0.022-0.05-0.034
						c-0.012-0.015-0.017-0.033-0.031-0.048c-0.014-0.014-0.036-0.021-0.051-0.034c-0.012-0.015-0.017-0.033-0.031-0.047
						c-0.014-0.013-0.035-0.021-0.05-0.034c-0.012-0.015-0.018-0.034-0.032-0.049c-0.013-0.013-0.035-0.021-0.05-0.033
						c-0.012-0.016-0.018-0.034-0.032-0.048c-0.013-0.014-0.034-0.021-0.049-0.034c-0.013-0.015-0.018-0.033-0.032-0.048
						c-0.014-0.014-0.035-0.022-0.05-0.033c-0.013-0.016-0.018-0.034-0.032-0.048c-0.013-0.014-0.035-0.021-0.05-0.034
						c-0.012-0.015-0.018-0.034-0.032-0.048c-0.013-0.014-0.035-0.022-0.05-0.034c-0.012-0.016-0.018-0.032-0.032-0.048
						c-0.013-0.013-0.035-0.021-0.05-0.033c-0.012-0.016-0.017-0.034-0.031-0.048c-0.013-0.014-0.035-0.021-0.05-0.034
						c-0.012-0.015-0.018-0.034-0.032-0.048c-0.012-0.014-0.034-0.021-0.049-0.033c-0.013-0.016-0.018-0.034-0.032-0.049
						c-0.014-0.014-0.036-0.022-0.051-0.034c-0.012-0.015-0.018-0.033-0.031-0.048c-0.014-0.013-0.035-0.021-0.05-0.032
						c-0.013-0.017-0.018-0.035-0.032-0.049c-0.014-0.014-0.035-0.022-0.05-0.034c-0.012-0.015-0.018-0.034-0.032-0.048
						c-0.013-0.014-0.035-0.021-0.05-0.033c-0.012-0.016-0.017-0.034-0.031-0.049c-0.014-0.013-0.035-0.021-0.05-0.033
						c-0.013-0.016-0.018-0.034-0.032-0.048s-0.035-0.021-0.05-0.034c-0.013-0.015-0.017-0.033-0.032-0.047
						c-0.013-0.015-0.035-0.022-0.05-0.034c-0.012-0.016-0.017-0.034-0.032-0.048c-0.013-0.014-0.035-0.022-0.05-0.034
						c-0.012-0.015-0.017-0.034-0.032-0.048c-0.013-0.014-0.034-0.022-0.049-0.033c-0.013-0.016-0.018-0.034-0.032-0.049
						c-0.013-0.013-0.035-0.021-0.05-0.034c-0.013-0.015-0.018-0.034-0.032-0.048c-0.013-0.014-0.035-0.021-0.051-0.034
						c-0.012-0.015-0.017-0.033-0.031-0.047c-0.012-0.013-0.034-0.021-0.049-0.033c-0.012-0.016-0.018-0.034-0.032-0.049
						c-0.013-0.014-0.035-0.022-0.05-0.034c-0.012-0.015-0.018-0.033-0.032-0.048c-0.013-0.013-0.035-0.021-0.049-0.033
						c-0.013-0.016-0.018-0.034-0.032-0.048c-0.014-0.014-0.036-0.022-0.051-0.034c-0.012-0.016-0.017-0.034-0.031-0.048
						s-0.035-0.021-0.05-0.033c-0.012-0.016-0.018-0.034-0.032-0.049c-0.013-0.013-0.035-0.021-0.05-0.034
						c-0.013-0.015-0.018-0.033-0.032-0.047c-0.013-0.013-0.034-0.021-0.049-0.033c-0.013-0.016-0.018-0.034-0.033-0.05
						c-0.013-0.013-0.035-0.021-0.049-0.033c-0.013-0.015-0.018-0.033-0.032-0.047c-0.013-0.014-0.035-0.022-0.05-0.034
						c-0.013-0.016-0.018-0.034-0.032-0.048c-0.013-0.014-0.035-0.023-0.05-0.034c-0.012-0.016-0.017-0.034-0.032-0.048
						c-0.013-0.014-0.035-0.022-0.05-0.034c-0.012-0.015-0.017-0.033-0.031-0.047c-0.013-0.013-0.035-0.021-0.05-0.034
						c-0.012-0.015-0.018-0.033-0.032-0.049c-0.013-0.013-0.035-0.021-0.05-0.033c-0.012-0.016-0.017-0.034-0.031-0.048
						c-0.014-0.014-0.036-0.022-0.051-0.034c-0.012-0.015-0.018-0.033-0.031-0.048c-0.013-0.013-0.035-0.021-0.05-0.033
						c-0.013-0.016-0.018-0.034-0.032-0.048c-0.013-0.014-0.035-0.021-0.05-0.034c-0.012-0.015-0.017-0.034-0.032-0.048
						c-0.013-0.014-0.035-0.021-0.05-0.033c-0.012-0.016-0.018-0.034-0.032-0.049c-0.013-0.013-0.035-0.021-0.05-0.033
						c-0.012-0.016-0.017-0.034-0.031-0.048s-0.035-0.021-0.05-0.034c-0.012-0.015-0.017-0.033-0.032-0.048
						c-0.013-0.014-0.035-0.021-0.049-0.033c-0.013-0.016-0.018-0.034-0.033-0.049c-0.013-0.013-0.034-0.021-0.049-0.033
						c-0.013-0.016-0.018-0.034-0.033-0.048c-0.012-0.014-0.035-0.022-0.05-0.035c-0.012-0.015-0.017-0.033-0.031-0.047
						c-0.014-0.014-0.035-0.021-0.05-0.034c-0.013-0.015-0.018-0.034-0.032-0.048c-0.013-0.014-0.035-0.021-0.049-0.033
						c-0.013-0.016-0.019-0.034-0.033-0.049c-0.013-0.013-0.035-0.021-0.05-0.033c-0.012-0.016-0.018-0.034-0.032-0.048
						c-0.013-0.013-0.034-0.021-0.049-0.034c-0.012-0.014-0.018-0.033-0.032-0.048c-0.013-0.013-0.035-0.021-0.05-0.033
						c-0.012-0.016-0.017-0.034-0.032-0.048c-0.013-0.014-0.034-0.021-0.049-0.034c-0.013-0.015-0.018-0.034-0.032-0.048
						c-0.014-0.014-0.036-0.021-0.051-0.034c-0.012-0.016-0.017-0.033-0.031-0.048c-0.013-0.014-0.035-0.021-0.05-0.033
						c-0.012-0.016-0.018-0.034-0.032-0.049c-0.014-0.014-0.035-0.021-0.05-0.033c-0.012-0.016-0.018-0.034-0.032-0.049
						c-0.013-0.013-0.035-0.021-0.05-0.033c-0.012-0.015-0.017-0.033-0.031-0.047c-0.013-0.014-0.035-0.021-0.049-0.034
						c-0.013-0.015-0.018-0.034-0.033-0.049c-0.013-0.013-0.035-0.021-0.05-0.034c-0.012-0.015-0.018-0.033-0.032-0.047
						c-0.013-0.014-0.035-0.022-0.049-0.034c-0.013-0.015-0.018-0.034-0.033-0.048c-0.013-0.014-0.034-0.021-0.049-0.033
						c-0.013-0.016-0.018-0.034-0.032-0.049c-0.013-0.013-0.035-0.021-0.05-0.033c-0.013-0.016-0.018-0.034-0.032-0.048
						c-0.013-0.013-0.034-0.021-0.049-0.033c-0.012-0.015-0.018-0.034-0.032-0.049c-0.014-0.014-0.035-0.021-0.051-0.034
						c-0.012-0.015-0.017-0.034-0.031-0.048c-0.014-0.014-0.036-0.022-0.051-0.034c-0.012-0.016-0.017-0.033-0.031-0.047
						c-0.013-0.014-0.035-0.021-0.049-0.033c-0.013-0.016-0.018-0.034-0.033-0.049c-0.013-0.014-0.035-0.021-0.05-0.034
						c-0.012-0.015-0.017-0.034-0.031-0.048c-0.014-0.013-0.035-0.021-0.05-0.033c-0.012-0.016-0.018-0.034-0.032-0.049
						c-0.013-0.013-0.035-0.021-0.05-0.033c-0.012-0.015-0.017-0.034-0.031-0.048s-0.036-0.022-0.051-0.034
						c-0.012-0.015-0.017-0.033-0.032-0.048c-0.013-0.013-0.035-0.021-0.05-0.033c-0.012-0.016-0.017-0.034-0.031-0.048
						s-0.036-0.022-0.05-0.034c-0.013-0.015-0.018-0.034-0.032-0.048c-0.013-0.013-0.035-0.021-0.049-0.033
						c-0.013-0.016-0.018-0.034-0.033-0.049c-0.013-0.013-0.035-0.021-0.05-0.033c-0.012-0.016-0.018-0.034-0.032-0.048
						c-0.013-0.014-0.035-0.022-0.05-0.034c-0.012-0.016-0.018-0.033-0.032-0.048c-0.012-0.013-0.034-0.021-0.049-0.033
						c-0.012-0.016-0.017-0.034-0.032-0.048c-0.013-0.014-0.035-0.022-0.05-0.034c-0.012-0.015-0.018-0.034-0.031-0.048
						c-0.013-0.014-0.035-0.021-0.05-0.033c-0.013-0.016-0.018-0.034-0.032-0.049c-0.014-0.014-0.035-0.021-0.05-0.034
						c-0.013-0.015-0.018-0.034-0.032-0.048c-0.014-0.014-0.035-0.021-0.05-0.033c-0.012-0.016-0.018-0.034-0.032-0.049
						c-0.048-0.047-0.104-0.087-0.18-0.121c-0.904-0.348-1.718-0.545-2.562-0.62c-0.48-0.046-0.89-0.04-1.283,0.001l-0.182,0.017
						c-2.881,0.262-5.487,2.003-7.874,3.845l-0.157,0.121l0.093,0.073l-0.011,0.008l0.092,0.074l-0.01,0.008l0.092,0.074
						l-0.011,0.007l0.093,0.074l-0.011,0.009l0.092,0.073l-0.01,0.008l0.092,0.074l-0.01,0.008l0.092,0.073l-0.011,0.008
						l0.092,0.074l-0.01,0.008l0.092,0.074l-0.01,0.008l0.092,0.073l-0.01,0.008l0.091,0.074l-0.01,0.008l0.092,0.073l-0.01,0.009
						l0.092,0.073l-0.011,0.008l0.093,0.074l-0.011,0.008l0.093,0.073l-0.011,0.008l0.092,0.074l-0.01,0.008l0.092,0.074
						l-0.011,0.008l0.093,0.074l-0.011,0.008l0.092,0.073l-0.01,0.008l0.092,0.074l-0.01,0.008l0.092,0.074l-0.011,0.008
						l0.092,0.073l-0.01,0.008l0.092,0.074l-0.01,0.008l0.092,0.073l-0.011,0.009l0.093,0.073l-0.011,0.008l0.093,0.074
						l-0.011,0.008l0.092,0.074l-0.01,0.008l0.092,0.073l-0.011,0.009l0.093,0.073l-0.011,0.008l0.092,0.074l-0.01,0.008
						l0.092,0.073l-0.01,0.008l0.091,0.074l-0.01,0.008l0.092,0.074l-0.01,0.008l0.092,0.073l-0.01,0.008l0.092,0.074l-0.01,0.008
						l0.091,0.074l-0.01,0.008l0.092,0.073l-0.01,0.008l0.092,0.074l-0.01,0.008l0.092,0.074l-0.011,0.008l0.092,0.073l-0.01,0.009
						l0.092,0.073l-0.01,0.008l0.092,0.074l-0.011,0.008l0.093,0.073l-0.011,0.009l0.092,0.074l-0.01,0.008l0.092,0.073
						l-0.011,0.008l0.092,0.074l-0.01,0.008l0.092,0.073l-0.01,0.008l0.027,0.021v0.588l-0.237-0.146
						c-1.472-0.901-2.925-2.062-4.338-3.189c-3.162-2.522-6.433-5.132-10.167-5.132c-1.111,0-2.232,0.218-3.442,0.672l-0.056,0.028
						c-0.168,0.085-0.281,0.241-0.312,0.431c-0.03,0.186,0.031,0.374,0.16,0.504c0.018,0.019,0.04,0.031,0.06,0.047
						c0.009,0.011,0.012,0.025,0.021,0.035c0.019,0.019,0.041,0.031,0.061,0.047c0.01,0.011,0.012,0.025,0.021,0.035
						c0.019,0.018,0.041,0.03,0.06,0.046c0.01,0.011,0.012,0.025,0.022,0.036c0.019,0.018,0.041,0.031,0.061,0.047
						c0.008,0.01,0.011,0.024,0.021,0.034c0.018,0.019,0.04,0.031,0.061,0.048c0.008,0.01,0.011,0.024,0.021,0.034
						c0.018,0.019,0.04,0.031,0.06,0.047c0.009,0.011,0.011,0.025,0.021,0.035c0.019,0.019,0.041,0.031,0.061,0.047
						c0.009,0.011,0.011,0.024,0.021,0.034c0.018,0.019,0.04,0.03,0.06,0.047c0.009,0.01,0.011,0.025,0.021,0.035
						c0.019,0.019,0.041,0.031,0.061,0.047c0.009,0.009,0.011,0.025,0.021,0.035c0.019,0.019,0.041,0.031,0.061,0.047
						c0.009,0.012,0.011,0.024,0.021,0.034c0.018,0.018,0.041,0.031,0.061,0.047c0.009,0.011,0.011,0.025,0.021,0.035
						c0.018,0.018,0.04,0.03,0.06,0.046c0.009,0.011,0.012,0.025,0.021,0.036c0.019,0.019,0.041,0.031,0.061,0.047
						c0.009,0.011,0.012,0.024,0.021,0.034c0.018,0.019,0.04,0.031,0.061,0.047c0.009,0.011,0.011,0.025,0.021,0.035
						c0.018,0.018,0.04,0.03,0.06,0.046c0.009,0.011,0.012,0.025,0.021,0.036c0.019,0.018,0.042,0.031,0.062,0.047
						c0.008,0.01,0.011,0.024,0.02,0.034c0.019,0.019,0.041,0.031,0.061,0.046c0.009,0.011,0.011,0.026,0.021,0.036
						c0.019,0.019,0.04,0.03,0.06,0.046c0.009,0.011,0.012,0.026,0.022,0.036c0.018,0.019,0.04,0.03,0.061,0.047
						c0.008,0.01,0.011,0.024,0.021,0.034c0.018,0.019,0.04,0.031,0.06,0.047c0.009,0.011,0.012,0.025,0.022,0.035
						c0.018,0.019,0.039,0.03,0.059,0.046c0.01,0.011,0.012,0.026,0.022,0.036c0.018,0.018,0.04,0.03,0.061,0.047
						c0.009,0.01,0.011,0.024,0.021,0.034c0.018,0.019,0.04,0.03,0.06,0.046c0.009,0.011,0.011,0.026,0.021,0.036
						c0.019,0.018,0.04,0.03,0.06,0.046c0.01,0.011,0.012,0.025,0.022,0.034c0.018,0.021,0.04,0.032,0.061,0.048
						c0.009,0.011,0.011,0.025,0.021,0.035c0.018,0.019,0.04,0.031,0.06,0.046c0.009,0.012,0.012,0.026,0.021,0.036
						c0.018,0.018,0.04,0.03,0.06,0.046c0.01,0.011,0.012,0.025,0.022,0.036c0.019,0.019,0.041,0.031,0.061,0.047
						c0.009,0.01,0.011,0.024,0.021,0.034c0.018,0.019,0.04,0.031,0.06,0.047c0.009,0.01,0.011,0.025,0.022,0.035
						c0.018,0.019,0.04,0.031,0.06,0.047c0.009,0.011,0.012,0.025,0.021,0.035c0.019,0.019,0.041,0.03,0.062,0.047
						c0.008,0.01,0.01,0.024,0.02,0.034c0.019,0.019,0.04,0.03,0.06,0.046c0.009,0.011,0.011,0.025,0.021,0.036
						c0.019,0.019,0.041,0.031,0.062,0.047c0.008,0.011,0.011,0.025,0.02,0.035c0.019,0.019,0.041,0.03,0.061,0.047
						c0.009,0.01,0.011,0.024,0.021,0.034c0.018,0.019,0.04,0.031,0.061,0.047c0.009,0.01,0.011,0.025,0.021,0.035
						c0.018,0.017,0.04,0.03,0.06,0.046c0.009,0.011,0.012,0.026,0.021,0.036c0.019,0.018,0.041,0.031,0.062,0.048
						c0.009,0.01,0.011,0.024,0.02,0.033c0.011,0.011,0.024,0.018,0.036,0.027v3.996l0.082,0.008v0.074l0.081,0.008v0.073
						l0.082,0.009v0.074l0.082,0.008v0.073l0.082,0.008v0.074l0.081,0.008v0.073l0.082,0.009v0.073l0.081,0.008v0.074l0.082,0.008
						v0.073l0.082,0.008v0.074l0.082,0.008v0.073l0.081,0.009v0.074l0.082,0.008v0.073l0.082,0.008v0.073l0.082,0.009v0.073
						l0.081,0.009v0.057c-0.232,0.022-0.465,0.047-0.702,0.047c-0.946,0-1.904-0.209-2.918-0.633
						c-0.239-0.118-0.52-0.076-0.697,0.102c-0.111,0.11-0.173,0.259-0.173,0.415c0,0.157,0.062,0.305,0.173,0.415
						c0.014,0.015,0.033,0.021,0.049,0.033c0.012,0.016,0.018,0.034,0.032,0.049c0.015,0.015,0.034,0.021,0.051,0.034
						c0.012,0.015,0.018,0.033,0.031,0.047c0.015,0.015,0.033,0.021,0.049,0.034c0.013,0.015,0.019,0.034,0.033,0.049
						c0.015,0.015,0.034,0.021,0.05,0.034c0.012,0.015,0.018,0.033,0.031,0.047c0.015,0.015,0.034,0.021,0.049,0.034
						c0.013,0.015,0.019,0.033,0.033,0.048c0.015,0.015,0.034,0.021,0.05,0.033c0.012,0.016,0.018,0.034,0.032,0.048
						c0.015,0.016,0.033,0.021,0.049,0.034c0.012,0.015,0.018,0.034,0.033,0.048c0.015,0.016,0.033,0.021,0.05,0.034
						c0.012,0.015,0.017,0.033,0.031,0.047c0.015,0.016,0.034,0.021,0.049,0.034c0.013,0.016,0.019,0.034,0.033,0.049
						c0.015,0.014,0.034,0.021,0.05,0.033c0.012,0.015,0.018,0.034,0.032,0.048c0.015,0.016,0.033,0.021,0.05,0.034
						c0.012,0.015,0.017,0.033,0.032,0.048c0.014,0.015,0.032,0.021,0.048,0.033c0.013,0.015,0.019,0.034,0.033,0.049
						c0.015,0.015,0.034,0.021,0.05,0.033c0.012,0.016,0.018,0.033,0.032,0.048c0.015,0.015,0.033,0.021,0.05,0.034
						c0.012,0.015,0.018,0.033,0.032,0.047c0.014,0.015,0.032,0.021,0.049,0.034c0.012,0.015,0.018,0.034,0.032,0.049
						c0.015,0.015,0.034,0.021,0.05,0.033c0.012,0.016,0.018,0.033,0.032,0.048c0.015,0.015,0.034,0.021,0.05,0.034
						c0.012,0.015,0.018,0.033,0.032,0.047c0.015,0.015,0.033,0.021,0.049,0.034c0.012,0.015,0.018,0.034,0.032,0.048
						c0.015,0.016,0.034,0.021,0.05,0.034c0.012,0.015,0.018,0.034,0.032,0.048c0.015,0.015,0.034,0.021,0.05,0.034
						c0.012,0.015,0.018,0.033,0.032,0.048c0.015,0.015,0.033,0.021,0.049,0.033c0.013,0.016,0.018,0.034,0.033,0.048
						c0.015,0.015,0.033,0.021,0.049,0.034c0.013,0.015,0.018,0.034,0.032,0.048c0.015,0.015,0.034,0.021,0.05,0.034
						c0.013,0.015,0.018,0.033,0.032,0.048c0.015,0.015,0.033,0.021,0.049,0.033c0.013,0.015,0.019,0.034,0.033,0.048
						c0.014,0.016,0.033,0.021,0.049,0.034c0.013,0.015,0.019,0.033,0.033,0.048c0.014,0.015,0.033,0.021,0.049,0.034
						c0.012,0.015,0.018,0.034,0.032,0.047c0.015,0.015,0.033,0.021,0.05,0.034c0.012,0.015,0.018,0.034,0.032,0.049
						c0.015,0.015,0.033,0.021,0.05,0.033c0.012,0.016,0.018,0.034,0.032,0.048c0.014,0.015,0.033,0.021,0.049,0.034
						c0.012,0.015,0.018,0.033,0.032,0.048c0.015,0.015,0.034,0.021,0.05,0.034c0.012,0.015,0.018,0.033,0.032,0.047
						c0.015,0.016,0.034,0.021,0.05,0.035c0.012,0.014,0.018,0.033,0.032,0.047c0.015,0.015,0.033,0.021,0.049,0.033
						c0.012,0.016,0.018,0.034,0.032,0.049c0.015,0.015,0.034,0.021,0.051,0.034c0.012,0.015,0.018,0.033,0.032,0.047
						c0.014,0.015,0.033,0.021,0.049,0.034c0.012,0.015,0.018,0.034,0.032,0.048c0.015,0.015,0.033,0.021,0.05,0.034
						c0.012,0.015,0.017,0.033,0.032,0.049c0.014,0.014,0.033,0.02,0.049,0.032c0.013,0.015,0.018,0.034,0.033,0.049
						c0.014,0.015,0.033,0.021,0.048,0.033c0.013,0.016,0.019,0.034,0.033,0.048c0.015,0.015,0.033,0.021,0.049,0.034
						c0.013,0.015,0.019,0.034,0.033,0.048c0.014,0.015,0.033,0.021,0.049,0.033c0.012,0.016,0.018,0.034,0.032,0.049
						c0.015,0.015,0.034,0.021,0.05,0.033c0.012,0.016,0.018,0.034,0.032,0.048c0.014,0.015,0.033,0.021,0.05,0.034
						c0.012,0.015,0.018,0.033,0.032,0.048c0.015,0.015,0.034,0.021,0.05,0.034c0.012,0.015,0.018,0.033,0.032,0.047
						c0.015,0.016,0.034,0.021,0.05,0.034c0.012,0.015,0.017,0.034,0.031,0.048c0.016,0.015,0.034,0.021,0.05,0.034
						c0.012,0.015,0.018,0.033,0.032,0.048c0.015,0.016,0.034,0.021,0.05,0.034c0.012,0.015,0.018,0.033,0.032,0.047
						c0.015,0.015,0.033,0.021,0.049,0.034c0.012,0.015,0.018,0.034,0.033,0.048c0.014,0.015,0.033,0.021,0.049,0.034
						c0.013,0.015,0.018,0.033,0.032,0.048c0.015,0.015,0.034,0.021,0.05,0.034c0.012,0.015,0.018,0.033,0.032,0.047
						c0.015,0.015,0.033,0.021,0.049,0.033c0.013,0.016,0.018,0.035,0.033,0.049c0.015,0.015,0.033,0.021,0.049,0.034
						c0.013,0.015,0.019,0.034,0.032,0.048c0.015,0.015,0.034,0.021,0.05,0.034c0.012,0.015,0.018,0.033,0.032,0.048
						c0.015,0.015,0.034,0.021,0.05,0.034c0.013,0.015,0.018,0.034,0.032,0.047c0.014,0.015,0.033,0.021,0.049,0.034
						c0.013,0.015,0.018,0.033,0.032,0.048c0.015,0.015,0.034,0.021,0.05,0.034c0.012,0.015,0.018,0.033,0.032,0.047
						c0.015,0.016,0.034,0.021,0.05,0.034c0.012,0.016,0.018,0.034,0.032,0.048c0.015,0.015,0.033,0.021,0.049,0.032
						c0.012,0.017,0.018,0.035,0.032,0.05c0.015,0.015,0.034,0.021,0.05,0.033c0.012,0.016,0.018,0.035,0.032,0.049
						c0.015,0.015,0.034,0.021,0.05,0.033c0.012,0.016,0.018,0.034,0.032,0.049c0.015,0.015,0.034,0.021,0.05,0.033
						c0.012,0.016,0.018,0.034,0.032,0.048c0.015,0.015,0.033,0.021,0.049,0.034c0.013,0.015,0.018,0.033,0.033,0.048
						c0.014,0.015,0.033,0.021,0.048,0.033c0.013,0.016,0.019,0.034,0.033,0.048c0.015,0.015,0.034,0.021,0.05,0.034
						c0.012,0.015,0.018,0.034,0.032,0.048c0.015,0.015,0.033,0.021,0.049,0.034c0.013,0.015,0.019,0.033,0.033,0.048
						c0.014,0.015,0.033,0.021,0.049,0.033c0.012,0.016,0.018,0.034,0.032,0.048c0.015,0.016,0.034,0.021,0.051,0.034
						c0.012,0.016,0.018,0.033,0.031,0.048c0.015,0.015,0.033,0.021,0.05,0.034c0.012,0.016,0.018,0.033,0.032,0.047
						c0.014,0.016,0.033,0.021,0.049,0.034c0.012,0.015,0.018,0.034,0.032,0.049c0.015,0.015,0.034,0.021,0.05,0.034
						c0.013,0.015,0.019,0.033,0.032,0.047c0.015,0.015,0.034,0.021,0.05,0.034c0.012,0.015,0.018,0.034,0.032,0.048
						c0.015,0.015,0.033,0.021,0.049,0.033c0.012,0.016,0.018,0.034,0.032,0.049c0.015,0.016,0.034,0.021,0.05,0.033
						c0.013,0.016,0.019,0.034,0.032,0.048c0.015,0.015,0.034,0.021,0.049,0.034c0.013,0.015,0.019,0.033,0.033,0.048
						c0.015,0.015,0.034,0.021,0.05,0.034c0.012,0.015,0.018,0.033,0.032,0.047c0.015,0.016,0.033,0.021,0.049,0.034
						c0.013,0.016,0.018,0.034,0.033,0.048c0.014,0.015,0.033,0.021,0.048,0.033c0.013,0.016,0.019,0.035,0.033,0.049
						c0.015,0.015,0.034,0.021,0.049,0.034c0.013,0.015,0.019,0.034,0.033,0.048c0.015,0.015,0.034,0.021,0.05,0.034
						c0.012,0.015,0.018,0.033,0.032,0.047c0.014,0.015,0.032,0.021,0.049,0.033c0.012,0.016,0.018,0.034,0.032,0.049
						c0.015,0.015,0.034,0.021,0.05,0.033c0.012,0.016,0.018,0.034,0.032,0.049c0.014,0.015,0.033,0.021,0.05,0.033
						c0.012,0.016,0.018,0.034,0.031,0.048c0.015,0.015,0.035,0.021,0.051,0.034c0.012,0.015,0.018,0.034,0.031,0.048
						c0.015,0.015,0.034,0.021,0.05,0.034c0.012,0.015,0.018,0.033,0.032,0.048c0.015,0.015,0.034,0.021,0.05,0.033
						c0.012,0.016,0.018,0.034,0.032,0.048c0.015,0.016,0.034,0.021,0.05,0.034c0.012,0.016,0.018,0.033,0.032,0.048
						c0.015,0.015,0.033,0.021,0.05,0.034c0.012,0.015,0.018,0.033,0.032,0.047c0.014,0.015,0.033,0.021,0.048,0.034
						c0.013,0.015,0.019,0.034,0.033,0.049c0.015,0.015,0.034,0.021,0.05,0.033c0.012,0.016,0.018,0.033,0.032,0.048
						c0.015,0.015,0.033,0.021,0.049,0.033c0.013,0.016,0.018,0.035,0.033,0.049c0.015,0.016,0.033,0.021,0.049,0.034
						c0.013,0.015,0.019,0.032,0.032,0.047c0.015,0.015,0.033,0.021,0.05,0.034c0.012,0.015,0.018,0.033,0.032,0.047
						c0.014,0.016,0.033,0.021,0.049,0.034c0.012,0.016,0.018,0.034,0.032,0.049c0.015,0.015,0.034,0.021,0.051,0.034
						c0.012,0.016,0.018,0.033,0.032,0.047c0.014,0.015,0.033,0.021,0.049,0.034c0.012,0.015,0.018,0.034,0.032,0.048
						c0.015,0.015,0.033,0.021,0.049,0.033c0.012,0.016,0.018,0.034,0.032,0.049c0.015,0.015,0.034,0.021,0.05,0.033
						c0.013,0.016,0.019,0.034,0.032,0.048c0.015,0.016,0.034,0.021,0.05,0.034c0.012,0.015,0.018,0.034,0.032,0.048
						c0.015,0.017,0.034,0.021,0.051,0.034c0.012,0.015,0.017,0.034,0.031,0.047c0.015,0.015,0.033,0.021,0.049,0.034
						c0.013,0.015,0.018,0.034,0.033,0.048c0.014,0.015,0.033,0.021,0.048,0.033c0.013,0.016,0.019,0.034,0.033,0.049
						c0.015,0.015,0.034,0.021,0.05,0.034c0.013,0.015,0.018,0.034,0.032,0.048c0.015,0.015,0.033,0.021,0.049,0.033
						c0.013,0.016,0.018,0.034,0.033,0.049c0.014,0.014,0.033,0.021,0.049,0.033c0.012,0.015,0.018,0.034,0.032,0.048
						c0.015,0.015,0.034,0.021,0.05,0.033c0.012,0.016,0.018,0.035,0.032,0.049c0.015,0.015,0.034,0.021,0.051,0.034
						c0.012,0.015,0.018,0.033,0.031,0.047c0.015,0.016,0.033,0.021,0.05,0.034c0.012,0.015,0.018,0.034,0.032,0.048
						c0.014,0.015,0.033,0.021,0.049,0.033c0.012,0.016,0.018,0.034,0.032,0.049c0.015,0.015,0.034,0.021,0.05,0.033
						c0.012,0.016,0.018,0.034,0.032,0.048c0.015,0.015,0.033,0.021,0.049,0.035c0.012,0.014,0.018,0.033,0.033,0.047
						c0.015,0.016,0.034,0.021,0.05,0.034c0.012,0.015,0.018,0.034,0.031,0.047c0.015,0.016,0.034,0.021,0.05,0.034
						c0.012,0.015,0.018,0.034,0.032,0.048c0.015,0.015,0.034,0.021,0.049,0.034c0.013,0.015,0.019,0.034,0.033,0.048
						c0.015,0.016,0.034,0.021,0.05,0.034c0.013,0.016,0.018,0.034,0.032,0.049c0.015,0.014,0.033,0.02,0.049,0.032
						c0.013,0.016,0.018,0.034,0.032,0.049c0.015,0.014,0.033,0.021,0.049,0.033c0.013,0.015,0.019,0.034,0.033,0.048
						c0.015,0.016,0.034,0.021,0.05,0.035c0.013,0.015,0.018,0.032,0.032,0.047c0.014,0.015,0.033,0.021,0.05,0.033
						c0.012,0.016,0.018,0.034,0.032,0.048c0.014,0.015,0.033,0.021,0.049,0.034c0.012,0.016,0.018,0.034,0.032,0.049
						c0.015,0.015,0.034,0.021,0.05,0.034c0.012,0.014,0.018,0.032,0.031,0.047c0.015,0.015,0.035,0.021,0.051,0.033
						c0.012,0.016,0.018,0.034,0.031,0.048c0.015,0.015,0.034,0.021,0.05,0.034c0.012,0.016,0.019,0.034,0.032,0.048
						c0.015,0.015,0.034,0.021,0.05,0.034c0.012,0.015,0.018,0.034,0.032,0.048c0.015,0.016,0.033,0.021,0.049,0.033
						c0.012,0.016,0.018,0.034,0.032,0.049c0.016,0.015,0.034,0.021,0.05,0.034c0.013,0.015,0.019,0.033,0.033,0.047
						c0.014,0.016,0.033,0.021,0.049,0.034c0.013,0.015,0.018,0.034,0.033,0.048c0.014,0.015,0.033,0.021,0.048,0.033
						c0.013,0.016,0.019,0.034,0.033,0.049c0.015,0.014,0.033,0.021,0.049,0.033c0.012,0.015,0.018,0.034,0.032,0.048
						c0.015,0.016,0.034,0.021,0.051,0.034c0.012,0.016,0.017,0.033,0.031,0.048c0.015,0.015,0.034,0.021,0.05,0.034
						c0.012,0.015,0.018,0.033,0.032,0.047c0.015,0.015,0.033,0.021,0.049,0.034c0.013,0.015,0.019,0.035,0.033,0.049
						c0.014,0.015,0.033,0.021,0.05,0.034c0.012,0.014,0.018,0.032,0.031,0.047c0.015,0.015,0.034,0.021,0.05,0.033
						c0.012,0.016,0.018,0.034,0.032,0.048c0.015,0.016,0.034,0.021,0.05,0.034c0.012,0.016,0.018,0.034,0.032,0.048
						c0.015,0.015,0.033,0.021,0.049,0.034c0.012,0.015,0.018,0.034,0.032,0.048c0.016,0.016,0.035,0.021,0.051,0.035
						c0.012,0.015,0.018,0.032,0.031,0.046c0.015,0.016,0.034,0.021,0.05,0.034c0.012,0.016,0.018,0.034,0.032,0.048
						c0.015,0.015,0.033,0.021,0.049,0.034c0.013,0.015,0.018,0.034,0.033,0.048c0.015,0.016,0.034,0.021,0.05,0.035
						c0.013,0.014,0.018,0.033,0.032,0.047s0.033,0.021,0.049,0.033c0.012,0.015,0.018,0.034,0.032,0.048
						c0.015,0.015,0.033,0.021,0.049,0.033c0.013,0.016,0.019,0.035,0.033,0.049c0.015,0.015,0.033,0.021,0.049,0.034
						c0.013,0.015,0.019,0.034,0.033,0.048c0.014,0.015,0.033,0.021,0.049,0.033c0.012,0.016,0.018,0.034,0.032,0.049
						c0.015,0.015,0.034,0.021,0.05,0.033c0.012,0.015,0.018,0.034,0.032,0.048c0.015,0.015,0.033,0.021,0.05,0.034
						c0.012,0.016,0.018,0.034,0.032,0.048c0.015,0.015,0.033,0.021,0.05,0.034c0.012,0.015,0.018,0.033,0.032,0.047
						c0.014,0.015,0.033,0.021,0.049,0.034c0.012,0.015,0.018,0.034,0.032,0.048c0.015,0.015,0.033,0.021,0.049,0.033
						c0.012,0.016,0.018,0.034,0.032,0.049c0.016,0.015,0.035,0.021,0.051,0.034c0.012,0.015,0.018,0.033,0.031,0.047
						c0.016,0.017,0.034,0.021,0.05,0.034c0.013,0.015,0.019,0.034,0.032,0.048c0.015,0.016,0.034,0.021,0.05,0.034
						c0.012,0.015,0.018,0.033,0.032,0.048c0.015,0.015,0.034,0.021,0.05,0.033c0.012,0.015,0.018,0.034,0.032,0.048
						c0.015,0.016,0.033,0.021,0.049,0.034c0.013,0.015,0.018,0.033,0.032,0.048c0.015,0.015,0.034,0.021,0.05,0.033
						c0.012,0.016,0.018,0.034,0.032,0.048c0.015,0.015,0.033,0.021,0.049,0.034c0.013,0.015,0.019,0.034,0.033,0.049
						c0.014,0.015,0.033,0.021,0.049,0.033c0.013,0.015,0.019,0.034,0.033,0.048c0.014,0.015,0.033,0.021,0.049,0.033
						c0.012,0.016,0.018,0.036,0.032,0.049c0.015,0.015,0.034,0.021,0.05,0.034c0.013,0.015,0.018,0.033,0.032,0.047
						c0.015,0.015,0.033,0.021,0.05,0.034c0.012,0.015,0.018,0.034,0.032,0.048c0.015,0.015,0.034,0.021,0.05,0.034
						c0.012,0.015,0.018,0.033,0.031,0.048c0.015,0.015,0.034,0.021,0.05,0.032c0.012,0.017,0.018,0.035,0.032,0.049
						c0.015,0.015,0.034,0.021,0.049,0.034c0.013,0.015,0.018,0.034,0.033,0.048c0.015,0.016,0.033,0.021,0.049,0.034
						c0.012,0.015,0.018,0.034,0.032,0.048c0.015,0.015,0.034,0.021,0.05,0.033c0.013,0.016,0.018,0.034,0.032,0.049
						c0.015,0.015,0.034,0.021,0.049,0.033c0.013,0.016,0.019,0.034,0.033,0.047c0.014,0.016,0.033,0.022,0.049,0.035
						c0.013,0.015,0.018,0.034,0.033,0.048c0.014,0.016,0.034,0.021,0.05,0.034c0.012,0.016,0.018,0.033,0.032,0.048
						c0.015,0.015,0.033,0.021,0.049,0.034c0.013,0.014,0.019,0.033,0.032,0.047c0.015,0.015,0.034,0.021,0.05,0.034
						c0.012,0.015,0.018,0.034,0.032,0.048c0.015,0.015,0.033,0.021,0.05,0.034c0.012,0.015,0.018,0.033,0.032,0.047
						c0.014,0.016,0.033,0.021,0.05,0.034c0.012,0.015,0.017,0.034,0.031,0.048c0.015,0.015,0.034,0.021,0.05,0.034
						c0.012,0.015,0.018,0.033,0.032,0.048c0.015,0.015,0.034,0.021,0.05,0.034c0.012,0.015,0.018,0.033,0.031,0.047
						c0.016,0.016,0.034,0.021,0.051,0.034c0.012,0.016,0.018,0.034,0.031,0.048c0.015,0.014,0.034,0.021,0.049,0.033
						c0.013,0.016,0.019,0.035,0.033,0.049c0.015,0.015,0.034,0.021,0.05,0.033c0.012,0.016,0.018,0.034,0.032,0.049
						s0.033,0.021,0.049,0.033c0.013,0.016,0.018,0.034,0.032,0.048c0.015,0.015,0.034,0.021,0.05,0.034
						c0.013,0.015,0.018,0.034,0.032,0.048c0.015,0.015,0.034,0.021,0.05,0.033c0.012,0.016,0.018,0.034,0.032,0.049
						c0.015,0.015,0.033,0.021,0.049,0.033c0.013,0.015,0.018,0.034,0.033,0.048c0.014,0.015,0.033,0.021,0.049,0.033
						c0.012,0.016,0.018,0.035,0.032,0.049c0.015,0.015,0.034,0.021,0.05,0.033c0.012,0.016,0.018,0.035,0.032,0.049
						c0.015,0.015,0.033,0.021,0.05,0.033c0.012,0.016,0.018,0.034,0.032,0.049c0.014,0.015,0.033,0.021,0.049,0.033
						c0.013,0.016,0.019,0.034,0.032,0.048c0.015,0.015,0.034,0.021,0.05,0.034c0.012,0.015,0.018,0.034,0.032,0.048
						c0.015,0.015,0.034,0.021,0.05,0.034c0.012,0.015,0.018,0.033,0.032,0.047c0.015,0.016,0.034,0.021,0.05,0.033
						c0.012,0.016,0.018,0.035,0.032,0.049c0.015,0.015,0.033,0.021,0.049,0.033c0.012,0.016,0.018,0.034,0.032,0.049
						c0.015,0.015,0.034,0.021,0.05,0.033c0.012,0.016,0.018,0.034,0.032,0.048c0.015,0.015,0.034,0.021,0.05,0.034
						c0.012,0.015,0.018,0.034,0.032,0.048c0.015,0.015,0.034,0.021,0.05,0.034c0.012,0.015,0.017,0.033,0.032,0.047
						c0.015,0.016,0.033,0.021,0.049,0.035c0.013,0.014,0.018,0.033,0.032,0.047c0.015,0.016,0.034,0.021,0.05,0.034
						c0.012,0.015,0.018,0.034,0.032,0.048c0.015,0.015,0.034,0.021,0.05,0.034c0.012,0.015,0.018,0.033,0.032,0.047
						c0.014,0.015,0.033,0.021,0.049,0.034c0.012,0.015,0.018,0.034,0.032,0.049c0.015,0.015,0.034,0.021,0.05,0.034
						c0.013,0.015,0.019,0.033,0.032,0.047c0.015,0.015,0.034,0.021,0.05,0.034c0.012,0.015,0.018,0.034,0.032,0.048
						c0.015,0.015,0.034,0.021,0.05,0.033c0.012,0.016,0.018,0.034,0.031,0.048c0.015,0.016,0.035,0.021,0.051,0.035
						c0.012,0.015,0.018,0.033,0.031,0.047c0.015,0.015,0.034,0.021,0.05,0.033c0.012,0.016,0.018,0.034,0.032,0.049
						c0.015,0.014,0.034,0.021,0.05,0.034c0.012,0.015,0.018,0.033,0.032,0.047c0.015,0.015,0.033,0.021,0.049,0.034
						c0.013,0.016,0.018,0.034,0.033,0.048c0.014,0.015,0.033,0.021,0.048,0.033c0.013,0.016,0.019,0.035,0.033,0.049
						c0.015,0.015,0.034,0.021,0.05,0.034c0.012,0.015,0.018,0.033,0.032,0.048s0.033,0.021,0.049,0.033
						c0.013,0.016,0.018,0.034,0.033,0.048c0.014,0.015,0.033,0.021,0.049,0.034c0.012,0.015,0.018,0.034,0.032,0.048
						c0.015,0.015,0.033,0.021,0.05,0.033c0.012,0.016,0.018,0.034,0.032,0.049c0.014,0.015,0.033,0.021,0.05,0.033
						c0.012,0.016,0.018,0.033,0.031,0.048c0.015,0.015,0.034,0.021,0.05,0.034c0.012,0.015,0.018,0.034,0.032,0.048
						c0.015,0.015,0.034,0.021,0.051,0.034c0.012,0.015,0.018,0.033,0.031,0.047c0.015,0.016,0.034,0.021,0.05,0.035
						c0.012,0.014,0.018,0.033,0.032,0.047c0.015,0.015,0.034,0.021,0.05,0.034c0.012,0.015,0.018,0.033,0.031,0.048
						c0.016,0.015,0.034,0.021,0.05,0.033c0.012,0.016,0.018,0.034,0.032,0.048c0.015,0.016,0.034,0.021,0.05,0.034
						c0.012,0.015,0.018,0.034,0.032,0.048c0.015,0.016,0.034,0.021,0.05,0.033c0.012,0.016,0.017,0.034,0.032,0.049
						c0.014,0.015,0.033,0.021,0.049,0.033c0.012,0.015,0.018,0.034,0.032,0.049c0.015,0.015,0.034,0.021,0.05,0.033
						c0.012,0.016,0.018,0.034,0.032,0.048c0.015,0.015,0.033,0.021,0.049,0.034c0.013,0.015,0.018,0.034,0.033,0.048
						c0.014,0.016,0.033,0.021,0.049,0.034c0.013,0.015,0.019,0.033,0.033,0.048c0.014,0.015,0.033,0.021,0.049,0.033
						c0.012,0.016,0.018,0.034,0.032,0.048c0.015,0.015,0.034,0.021,0.05,0.034c0.012,0.015,0.018,0.034,0.032,0.048
						c0.015,0.015,0.033,0.021,0.05,0.033c0.012,0.015,0.018,0.034,0.031,0.048c0.015,0.016,0.034,0.021,0.05,0.035
						c0.012,0.015,0.019,0.033,0.032,0.048c0.015,0.015,0.034,0.021,0.05,0.034c0.012,0.015,0.018,0.033,0.032,0.047
						c0.015,0.015,0.034,0.021,0.05,0.034c0.012,0.015,0.018,0.034,0.032,0.048c0.015,0.015,0.033,0.021,0.049,0.033
						c0.012,0.016,0.018,0.034,0.032,0.049c0.015,0.014,0.034,0.021,0.05,0.034c0.012,0.015,0.018,0.033,0.032,0.047
						c0.015,0.015,0.034,0.021,0.05,0.034c0.012,0.015,0.018,0.033,0.032,0.048c0.015,0.015,0.034,0.021,0.05,0.033
						c0.012,0.016,0.018,0.034,0.032,0.048c0.015,0.015,0.033,0.021,0.049,0.034c0.013,0.015,0.018,0.034,0.032,0.048
						c0.015,0.015,0.034,0.021,0.05,0.033c0.012,0.016,0.018,0.034,0.032,0.049c0.015,0.015,0.033,0.021,0.049,0.033
						c0.013,0.016,0.019,0.034,0.033,0.048c0.014,0.016,0.033,0.021,0.05,0.034c0.012,0.016,0.018,0.034,0.032,0.048
						c0.014,0.015,0.033,0.021,0.049,0.033c0.012,0.016,0.018,0.034,0.032,0.048c0.015,0.016,0.034,0.021,0.05,0.035
						c0.012,0.014,0.018,0.033,0.032,0.047c0.014,0.015,0.033,0.021,0.049,0.033c0.012,0.016,0.018,0.035,0.032,0.049
						c0.015,0.015,0.034,0.021,0.05,0.034c0.012,0.015,0.018,0.034,0.032,0.048c0.015,0.015,0.034,0.021,0.05,0.033
						c0.012,0.016,0.018,0.034,0.032,0.049c0.015,0.015,0.034,0.021,0.05,0.033c0.012,0.016,0.018,0.034,0.032,0.048
						c0.015,0.015,0.033,0.021,0.049,0.034c0.012,0.015,0.018,0.033,0.032,0.048c0.016,0.015,0.034,0.021,0.05,0.034
						c0.013,0.015,0.018,0.033,0.033,0.047c0.014,0.015,0.033,0.021,0.049,0.034c0.013,0.015,0.018,0.034,0.032,0.048
						c0.015,0.015,0.034,0.021,0.049,0.033c0.013,0.016,0.019,0.034,0.033,0.049c0.014,0.015,0.033,0.021,0.049,0.033
						c0.012,0.016,0.018,0.035,0.033,0.049c0.014,0.015,0.033,0.021,0.049,0.034c0.012,0.015,0.018,0.033,0.032,0.048
						c0.015,0.014,0.034,0.021,0.05,0.033c0.013,0.015,0.018,0.034,0.032,0.047c0.014,0.016,0.033,0.021,0.049,0.034
						c0.012,0.015,0.019,0.034,0.032,0.049c0.015,0.015,0.034,0.021,0.05,0.034c0.012,0.014,0.018,0.033,0.032,0.047
						c0.015,0.015,0.033,0.021,0.05,0.034c0.012,0.015,0.018,0.034,0.032,0.048c0.014,0.015,0.033,0.021,0.049,0.033
						c0.012,0.016,0.018,0.034,0.032,0.049c0.015,0.015,0.034,0.021,0.05,0.034c0.013,0.015,0.019,0.033,0.032,0.047
						c0.015,0.015,0.034,0.021,0.05,0.034c0.012,0.015,0.018,0.033,0.032,0.048c0.015,0.015,0.034,0.021,0.05,0.034
						c0.012,0.015,0.018,0.033,0.032,0.047c0.015,0.015,0.033,0.021,0.05,0.034c0.012,0.015,0.018,0.034,0.032,0.048
						c0.015,0.016,0.033,0.021,0.049,0.033c0.013,0.016,0.018,0.034,0.032,0.049c0.015,0.015,0.034,0.02,0.049,0.033
						c0.013,0.016,0.019,0.034,0.033,0.048c0.014,0.015,0.033,0.021,0.049,0.034c0.013,0.015,0.018,0.034,0.033,0.049
						c0.014,0.014,0.033,0.021,0.049,0.033c0.012,0.015,0.018,0.034,0.032,0.048c0.015,0.016,0.034,0.021,0.05,0.034
						c0.013,0.016,0.019,0.033,0.032,0.048c0.015,0.015,0.033,0.021,0.05,0.033c0.012,0.016,0.018,0.034,0.032,0.048
						c0.015,0.015,0.033,0.021,0.05,0.034c0.012,0.015,0.018,0.034,0.031,0.048c0.015,0.015,0.034,0.021,0.05,0.033
						c0.012,0.016,0.018,0.034,0.032,0.049c0.015,0.015,0.034,0.021,0.05,0.033c0.012,0.016,0.018,0.034,0.032,0.048
						c0.015,0.015,0.033,0.021,0.049,0.034c0.012,0.015,0.018,0.033,0.032,0.048c0.015,0.015,0.034,0.021,0.049,0.033
						c0.013,0.016,0.019,0.035,0.033,0.049c0.015,0.016,0.035,0.021,0.051,0.035c0.012,0.015,0.018,0.032,0.031,0.046
						c0.015,0.016,0.034,0.021,0.05,0.034c0.012,0.016,0.018,0.033,0.032,0.048c0.015,0.015,0.033,0.021,0.049,0.034
						c0.013,0.015,0.018,0.034,0.033,0.048c0.014,0.015,0.033,0.021,0.049,0.034c0.013,0.015,0.018,0.033,0.032,0.048
						c0.015,0.014,0.034,0.021,0.05,0.033c0.012,0.015,0.018,0.034,0.032,0.048c0.015,0.015,0.033,0.021,0.049,0.034
						c0.013,0.015,0.019,0.033,0.033,0.048c0.014,0.015,0.033,0.021,0.049,0.033c0.013,0.016,0.018,0.034,0.032,0.048
						c0.015,0.015,0.034,0.021,0.05,0.034c0.012,0.015,0.018,0.034,0.032,0.048c0.015,0.015,0.034,0.021,0.05,0.034
						c0.012,0.015,0.018,0.033,0.032,0.048c0.015,0.015,0.033,0.021,0.05,0.034c0.012,0.015,0.018,0.033,0.031,0.047
						c0.015,0.015,0.034,0.021,0.05,0.034c0.013,0.015,0.019,0.033,0.032,0.048c0.015,0.015,0.033,0.021,0.049,0.033
						c0.013,0.016,0.019,0.035,0.033,0.049c0.015,0.015,0.033,0.021,0.049,0.033c0.013,0.016,0.018,0.034,0.032,0.049
						c0.015,0.015,0.034,0.021,0.05,0.033c0.012,0.016,0.018,0.034,0.032,0.048c0.015,0.015,0.034,0.021,0.05,0.034
						c0.012,0.015,0.018,0.034,0.032,0.048c0.014,0.015,0.033,0.021,0.049,0.033c0.013,0.016,0.018,0.034,0.033,0.049
						s0.034,0.02,0.05,0.033c0.012,0.016,0.018,0.034,0.032,0.048c0.014,0.015,0.033,0.021,0.049,0.034
						c0.013,0.015,0.018,0.033,0.032,0.048c0.015,0.015,0.034,0.021,0.05,0.034c0.012,0.015,0.018,0.033,0.032,0.047
						c0.015,0.015,0.033,0.021,0.049,0.034c0.013,0.015,0.019,0.034,0.033,0.048c0.014,0.015,0.032,0.021,0.049,0.033
						c0.012,0.016,0.018,0.035,0.032,0.049c0.015,0.015,0.034,0.021,0.051,0.034c0.011,0.015,0.017,0.034,0.031,0.047
						c0.015,0.015,0.034,0.021,0.05,0.034c0.012,0.016,0.018,0.033,0.032,0.048c0.014,0.015,0.033,0.021,0.049,0.033
						c0.012,0.016,0.018,0.035,0.032,0.049c0.015,0.015,0.034,0.021,0.05,0.034c0.012,0.015,0.018,0.033,0.032,0.048
						c0.015,0.015,0.034,0.021,0.05,0.034c0.012,0.015,0.018,0.033,0.032,0.047c0.015,0.015,0.034,0.021,0.05,0.034
						c0.012,0.015,0.017,0.034,0.032,0.048c0.015,0.015,0.033,0.021,0.049,0.034c0.013,0.015,0.018,0.033,0.032,0.048
						c0.015,0.014,0.034,0.021,0.05,0.033c0.012,0.015,0.018,0.034,0.032,0.049c0.015,0.014,0.033,0.02,0.049,0.033
						c0.013,0.015,0.018,0.033,0.033,0.048c0.014,0.015,0.033,0.021,0.049,0.034c0.013,0.015,0.018,0.033,0.033,0.047
						c0.014,0.015,0.033,0.021,0.049,0.034c0.012,0.015,0.018,0.034,0.032,0.048c0.015,0.015,0.033,0.021,0.049,0.033
						c0.013,0.016,0.019,0.035,0.033,0.049c0.015,0.016,0.034,0.021,0.051,0.035c0.012,0.015,0.018,0.033,0.031,0.046
						c0.014,0.015,0.033,0.021,0.049,0.034c0.012,0.015,0.018,0.034,0.032,0.049c0.015,0.014,0.034,0.021,0.05,0.033
						c0.012,0.015,0.018,0.034,0.032,0.048c0.015,0.015,0.034,0.021,0.05,0.033c0.012,0.016,0.018,0.034,0.032,0.049
						c0.015,0.015,0.033,0.021,0.049,0.033c0.012,0.016,0.018,0.034,0.032,0.048c0.052,0.052,0.113,0.093,0.174,0.118l0.055,0.027
						c1.181,0.495,2.286,0.734,3.378,0.734v-0.084h0.006l0.006,0.084c3.132,0,5.982-1.869,8.594-3.888l0.157-0.121l-0.092-0.074
						l0.01-0.008l-0.092-0.074l0.01-0.008l-0.092-0.073l0.01-0.008l-0.092-0.074l0.011-0.008l-0.093-0.073l0.011-0.009l-0.092-0.073
						l0.01-0.008l-0.092-0.075l0.01-0.007l-0.091-0.074l0.01-0.008l-0.092-0.074l0.01-0.008l-0.092-0.073l0.011-0.008l-0.093-0.074
						l0.011-0.008l-0.092-0.073l0.01-0.008l-0.092-0.074l0.011-0.008l-0.093-0.074l0.011-0.008l-0.092-0.073l0.01-0.008
						l-0.092-0.075l0.01-0.008l-0.092-0.072l0.01-0.009l-0.092-0.074l0.01-0.008l-0.091-0.073l0.01-0.008l-0.092-0.074l0.01-0.008
						l-0.092-0.074l0.011-0.008l-0.093-0.073l0.011-0.008l-0.093-0.074l0.011-0.008l-0.092-0.073l0.01-0.008l-0.092-0.074
						l0.011-0.008l-0.093-0.074l0.011-0.008l-0.092-0.074l0.011-0.008l-0.093-0.073l0.011-0.009l-0.092-0.073l0.01-0.008
						l-0.092-0.074l0.01-0.008l-0.092-0.073l0.01-0.008l-0.091-0.074l0.01-0.008l-0.092-0.073l0.01-0.009l-0.092-0.073l0.011-0.008
						l-0.093-0.074l0.011-0.008l-0.093-0.073l0.011-0.008l-0.093-0.075l0.011-0.008l-0.092-0.073l0.01-0.008l-0.092-0.074
						l0.011-0.008l-0.092-0.074l0.01-0.008l-0.092-0.073l0.01-0.008l-0.092-0.074l0.01-0.008l-0.092-0.073l0.011-0.008l-0.092-0.074
						l0.01-0.008l-0.092-0.074l0.011-0.008l-0.092-0.073l0.01-0.008l-0.093-0.074l0.011-0.009l-0.036-0.029v-0.576l0.237,0.146
						c1.457,0.896,2.903,2.05,4.31,3.172c3.166,2.527,6.439,5.141,10.18,5.141c1.042-0.002,2.085-0.202,3.179-0.609
						c0.232-0.068,0.395-0.225,0.447-0.429c0.051-0.2-0.013-0.42-0.167-0.574C226.857,445.264,226.841,445.257,226.829,445.247"/>
				</defs>
				<clipPath id="SVGID_6_">
					<use xlink:href="#SVGID_5_"  overflow="visible"/>
				</clipPath>
				
					<linearGradient id="SVGID_7_" gradientUnits="userSpaceOnUse" x1="12.7002" y1="839.1563" x2="13.7007" y2="839.1563" gradientTransform="matrix(-1.600000e-006 -35.7959 -35.7959 1.600000e-006 30239.5762 901.4861)">
					<stop  offset="0" style="stop-color:#FFFFFF"/>
					<stop  offset="0.5266" style="stop-color:#F2F2F3"/>
					<stop  offset="1" style="stop-color:#000000"/>
				</linearGradient>
				<rect x="175.356" y="411.08" clip-path="url(#SVGID_6_)" fill="url(#SVGID_7_)" width="51.776" height="35.808"/>
			</g>
		</g>
	</g>
</g>
<path fill="#FFFFFF" d="M187.284,417.742l-0.276-0.217l-0.096,0.073c-2.745,2.108-5.105,3.513-7.701,3.513
	c-0.947,0-1.905-0.209-2.918-0.633c-0.239-0.118-0.52-0.076-0.698,0.102c-0.111,0.11-0.172,0.259-0.172,0.415
	c0,0.157,0.061,0.305,0.172,0.415c0.052,0.052,0.112,0.093,0.173,0.118l0.056,0.027c1.18,0.494,2.285,0.734,3.378,0.734v-0.155
	l0.012,0.155c3.132,0,5.982-1.869,8.594-3.888l0.156-0.122l-0.154-0.123C187.635,418.018,187.458,417.88,187.284,417.742"/>
<path fill="#FFFFFF" d="M201.609,420.558c-0.711,0.265-1.369,0.426-2.013,0.495l-0.172,0.019v-7.451l-0.138-0.015
	c-0.345-0.037-0.616-0.034-0.904-0.004l-0.14,0.014v7.47l-0.17-0.019c-0.944-0.101-1.888-0.376-2.885-0.844l-0.101-0.047
	l0.032-0.223l0.002-5.302l-0.232,0.13c-0.266,0.15-0.554,0.324-0.88,0.535l-0.07,0.045v4.197l-0.237-0.146
	c-1.471-0.901-2.925-2.062-4.338-3.189c-3.162-2.522-6.433-5.132-10.167-5.132c-1.111,0-2.232,0.218-3.442,0.672l-0.056,0.028
	c-0.168,0.085-0.281,0.241-0.312,0.431c-0.029,0.186,0.031,0.374,0.16,0.504c0.155,0.154,0.37,0.216,0.602,0.141
	c0.809-0.3,1.557-0.48,2.287-0.553l0.17-0.017v7.476l0.14,0.013c0.35,0.036,0.632,0.028,0.9,0l0.14-0.013l0.001-7.474l0.172,0.019
	c0.934,0.101,1.876,0.377,2.879,0.848l0.102,0.05l-0.034,0.214v5.295l0.233-0.133c0.278-0.158,0.574-0.338,0.878-0.535l0.071-0.046
	v-4.177l0.237,0.146c1.457,0.896,2.903,2.05,4.31,3.172c3.166,2.527,6.44,5.14,10.18,5.14c1.042-0.001,2.086-0.201,3.179-0.608
	c0.232-0.068,0.396-0.225,0.447-0.429c0.051-0.2-0.013-0.42-0.167-0.575C202.101,420.508,201.796,420.468,201.609,420.558"/>
<path fill="#FFFFFF" d="M190.695,415.604l0.332,0.26l0.094-0.074c2.372-1.828,4.948-3.519,7.713-3.519
	c0.936,0,1.876,0.186,2.883,0.569c0.058,0.018,0.117,0.026,0.176,0.026c0.158,0,0.305-0.062,0.415-0.171
	c0.227-0.229,0.228-0.6,0-0.828c-0.048-0.047-0.104-0.087-0.179-0.121c-0.905-0.348-1.719-0.545-2.563-0.62
	c-0.479-0.046-0.89-0.04-1.283,0.001l-0.182,0.017c-2.881,0.262-5.487,2.002-7.874,3.845l-0.157,0.121l0.155,0.123
	C190.383,415.359,190.539,415.481,190.695,415.604"/>
<g>
	<path fill="#1A1D20" d="M247.824,408.845h0.03v17.36h-1.518v-8.315c-3.278,0-6.556,0-9.833,0c0,3.126,0,5.189,0,8.315h-1.518
		c0-5.463,0-11.897,0-17.36c0-1.396,0.759-2.458,1.882-3.126c2.215-1.335,6.889-1.335,9.074,0
		C247.065,406.387,247.824,407.449,247.824,408.845z M236.504,408.845v7.527c3.277,0,6.555,0,9.833,0v-7.527
		c0-0.789-0.485-1.426-1.184-1.851c-1.73-1.063-5.797-1.032-7.496,0C236.959,407.419,236.504,408.056,236.504,408.845z"/>
	<path fill="#1A1D20" d="M257.261,426.205c0-7.132,0-14.173,0-21.275h7.375c2.458,0,5.523,1.244,5.523,4.098v13.05
		c0,2.914-3.126,4.128-5.736,4.128H257.261z M268.612,409.027c0-1.821-2.428-2.58-4.006-2.58h-0.122h-0.03h-5.645v18.21h5.615
		c1.426,0,3.581-0.485,4.067-1.942C268.703,422.107,268.612,411.606,268.612,409.027z"/>
	<path fill="#1A1D20" d="M292.252,426.205c-0.546,0-1.062,0-1.608,0l-9.135-17.147l-0.759-2.033h-0.122l0.273,2.154v17.026h-1.518
		V404.96c0.546,0,1.092,0,1.639,0l9.135,17.147l0.759,2.004h0.091l-0.273-2.155V404.96h1.518V426.205z"/>
</g>
<path fill="#1A1D20" d="M237.656,406.995c1.7-1.032,5.766-1.063,7.496,0c0.698,0.425,1.184,1.063,1.184,1.852v7.525h-9.833v-7.525
	C236.503,408.058,236.959,407.42,237.656,406.995z M245.941,405.721c-2.185-1.336-6.858-1.336-9.074,0
	c-1.122,0.667-1.881,1.729-1.881,3.126v17.358h1.517v-8.315h9.833v8.315h1.517v-17.358h-0.03
	C247.823,407.449,247.064,406.388,245.941,405.721z"/>
<path fill="#1A1D20" d="M264.424,426.205c2.609,0,5.735-1.214,5.735-4.127v-13.051c0-2.852-3.065-4.096-5.523-4.096h-7.375v21.273
	H264.424z M268.49,422.715c-0.485,1.457-2.641,1.942-4.066,1.942h-5.615v-18.208h5.645h0.03h0.121c1.578,0,4.006,0.759,4.006,2.578
	C268.611,411.608,268.702,422.108,268.49,422.715z"/>
<polygon fill="#1A1D20" points="292.252,404.962 290.734,404.962 290.734,421.956 291.008,424.111 290.917,424.111 290.158,422.107 
	281.023,404.962 279.385,404.962 279.385,426.205 280.902,426.205 280.902,409.18 280.629,407.025 280.75,407.025 281.509,409.059 
	290.644,426.205 292.252,426.205 "/>
<g>
	<path fill="#1A1D20" d="M313.891,422.624c0.03,1.852-1.487,2.913-3.127,3.399c-1.668,0.455-4.248,0.455-5.918,0.03
		c-1.729-0.456-3.308-1.518-3.308-3.46v-0.122c0-4.704-0.03-9.287,0-13.961c0-2.154,1.942-3.247,3.824-3.611
		c1.669-0.304,4.097-0.273,5.675,0.243c1.67,0.546,2.822,1.639,2.822,3.338h-0.484c0-1.518-1.063-2.428-2.459-2.913
		c-1.578-0.516-3.854-0.516-5.463-0.213c-1.608,0.304-3.46,1.245-3.46,3.126v14.113c0,1.669,1.487,2.641,2.944,3.004
		c1.608,0.426,4.097,0.426,5.705-0.03c1.427-0.395,2.822-1.335,2.793-2.974v-6.07h-5.19v-0.455h5.646V422.624z"/>
	<path fill="#1A1D20" d="M323.055,426.205c0-5.827,0-11.836,0-17.663c0-1.275,0.667-2.186,1.729-2.823
		c2.124-1.274,6.798-1.274,8.923,0c1.063,0.638,1.73,1.548,1.73,2.823c0,5.827,0,11.836,0,17.663h-0.486v-8.74h-0.547
		c-3.459,0-6.889,0-10.349,0h-0.546v0.546c0,2.731,0,5.463,0,8.194H323.055z M323.51,417.009h0.546c3.46,0,6.89,0,10.349,0h0.547
		v-8.467c0.03-1.063-0.607-1.882-1.487-2.429c-2.003-1.214-6.464-1.214-8.468,0c-0.88,0.547-1.486,1.366-1.486,2.429
		C323.51,411.304,323.51,414.247,323.51,417.009z"/>
	<path fill="#1A1D20" d="M359.928,404.93c0.334,0,0.485,0,0.818,0v21.275h-0.516v-20.851l-7.254,15.752h-0.484l-7.254-15.752
		l0.03,20.851h-0.517V404.93c0.334,0,0.486,0,0.82,0l7.162,15.539L359.928,404.93z"/>
	<path fill="#1A1D20" d="M370.973,404.93v21.275h-0.455c0-7.102,0-14.204,0-21.275H370.973z"/>
	<path fill="#1A1D20" d="M392.914,426.205c-0.273,0-0.547,0-0.819,0l-11.108-20.972v20.972h-0.455V404.93c0.243,0,0.516,0,0.789,0
		l11.108,20.941V404.93h0.485V426.205z"/>
	<path fill="#1A1D20" d="M414.521,422.624c0.03,1.852-1.487,2.913-3.126,3.399c-1.67,0.455-4.249,0.455-5.919,0.03
		c-1.729-0.456-3.308-1.518-3.308-3.46v-0.122c0-4.704-0.03-9.287,0-13.961c0-2.154,1.942-3.247,3.824-3.611
		c1.669-0.304,4.097-0.273,5.675,0.243c1.67,0.546,2.823,1.639,2.823,3.338h-0.486c0-1.518-1.062-2.428-2.458-2.913
		c-1.578-0.516-3.854-0.516-5.463-0.213c-1.608,0.304-3.46,1.245-3.46,3.126v14.113c0,1.669,1.487,2.641,2.944,3.004
		c1.608,0.426,4.097,0.426,5.705-0.03c1.427-0.395,2.823-1.335,2.793-2.974v-6.07h-5.19v-0.455h5.646V422.624z"/>
</g>
<path fill="#1A1D20" d="M313.89,416.069h-5.646v0.455h5.19v6.069c0.03,1.639-1.366,2.579-2.792,2.974
	c-1.607,0.456-4.098,0.456-5.706,0.03c-1.456-0.363-2.942-1.335-2.942-3.004v-14.111c0-1.882,1.851-2.822,3.459-3.126
	s3.883-0.304,5.461,0.212c1.397,0.486,2.459,1.396,2.459,2.914h0.486c0-1.7-1.154-2.792-2.822-3.339
	c-1.578-0.516-4.006-0.546-5.676-0.242c-1.881,0.364-3.824,1.456-3.824,3.611c-0.029,4.673,0,9.256,0,13.96v0.121
	c0,1.942,1.58,3.004,3.309,3.46c1.669,0.425,4.249,0.425,5.918-0.03c1.639-0.486,3.156-1.548,3.126-3.399V416.069z"/>
<path fill="#1A1D20" d="M323.509,408.543c0-1.063,0.606-1.882,1.487-2.428c2.003-1.214,6.464-1.214,8.467,0
	c0.88,0.546,1.518,1.365,1.486,2.428v8.467h-0.545h-10.35h-0.546V408.543z M323.509,426.205v-8.193v-0.547h0.546h10.35h0.545v8.74
	h0.486v-17.662c0-1.274-0.668-2.186-1.73-2.822c-2.125-1.274-6.799-1.274-8.922,0c-1.063,0.637-1.729,1.548-1.729,2.822v17.662
	H323.509z"/>
<polygon fill="#1A1D20" points="352.765,420.47 345.603,404.932 344.783,404.932 344.783,426.205 345.299,426.205 345.269,405.356 
	352.521,421.106 353.006,421.106 360.261,405.356 360.261,426.205 360.776,426.205 360.776,404.932 359.957,404.932 "/>
<rect x="370.548" y="404.932" fill="#1A1D20" width="0.455" height="21.273"/>
<polygon fill="#1A1D20" points="392.944,404.932 392.459,404.932 392.459,425.87 381.352,404.932 380.563,404.932 380.563,426.205 
	381.018,426.205 381.018,405.235 392.125,426.205 392.944,426.205 "/>
<path fill="#1A1D20" d="M414.551,416.069h-5.645v0.455h5.189v6.069c0.03,1.639-1.366,2.579-2.792,2.974
	c-1.608,0.456-4.098,0.456-5.706,0.03c-1.456-0.363-2.943-1.335-2.943-3.004v-14.111c0-1.882,1.852-2.822,3.46-3.126
	s3.884-0.304,5.462,0.212c1.396,0.486,2.458,1.396,2.458,2.914h0.486c0-1.7-1.153-2.792-2.822-3.339
	c-1.578-0.516-4.006-0.546-5.676-0.242c-1.881,0.364-3.823,1.456-3.823,3.611c-0.03,4.673,0,9.256,0,13.96v0.121
	c0,1.942,1.578,3.004,3.308,3.46c1.669,0.425,4.249,0.425,5.918-0.03c1.639-0.486,3.156-1.548,3.126-3.399V416.069z"/>
</svg>
